<?xml version="1.0" encoding="UTF-8" standalone="no"?>
<!-- Created with Inkscape (http://www.inkscape.org/) -->

<svg
   version="1.1"
   id="svg9"
   width="492"
   height="420"
   viewBox="0 0 492 420"
   sodipodi:docname="LOGO_APRENDIZAJE.svg"
   inkscape:version="1.2 (dc2aedaf03, 2022-05-15)"
   inkscape:export-filename="LOGO_APRENDIZAJE.svg"
   inkscape:export-xdpi="96"
   inkscape:export-ydpi="96"
   xmlns:inkscape="http://www.inkscape.org/namespaces/inkscape"
   xmlns:sodipodi="http://sodipodi.sourceforge.net/DTD/sodipodi-0.dtd"
   xmlns="http://www.w3.org/2000/svg"
   xmlns:svg="http://www.w3.org/2000/svg">
  <defs
     id="defs13">
    <inkscape:path-effect
       effect="bspline"
       id="path-effect1785"
       is_visible="true"
       lpeversion="1"
       weight="33.333333"
       steps="2"
       helper_size="0"
       apply_no_weight="true"
       apply_with_weight="true"
       only_selected="false" />
    <inkscape:path-effect
       effect="bspline"
       id="path-effect1514"
       is_visible="true"
       lpeversion="1"
       weight="33.333333"
       steps="2"
       helper_size="0"
       apply_no_weight="true"
       apply_with_weight="true"
       only_selected="false" />
    <inkscape:path-effect
       effect="bspline"
       id="path-effect1456"
       is_visible="true"
       lpeversion="1"
       weight="33.333333"
       steps="2"
       helper_size="0"
       apply_no_weight="true"
       apply_with_weight="true"
       only_selected="false" />
    <inkscape:path-effect
       effect="bspline"
       id="path-effect1171"
       is_visible="true"
       lpeversion="1"
       weight="33.333333"
       steps="2"
       helper_size="0"
       apply_no_weight="true"
       apply_with_weight="true"
       only_selected="false" />
    <inkscape:path-effect
       effect="bspline"
       id="path-effect1127"
       is_visible="true"
       lpeversion="1"
       weight="33.333333"
       steps="2"
       helper_size="0"
       apply_no_weight="true"
       apply_with_weight="true"
       only_selected="false" />
    <inkscape:path-effect
       effect="bspline"
       id="path-effect1069"
       is_visible="true"
       lpeversion="1"
       weight="33.333333"
       steps="2"
       helper_size="0"
       apply_no_weight="true"
       apply_with_weight="true"
       only_selected="false" />
    <inkscape:path-effect
       effect="bspline"
       id="path-effect1011"
       is_visible="true"
       lpeversion="1"
       weight="33.333333"
       steps="2"
       helper_size="0"
       apply_no_weight="true"
       apply_with_weight="true"
       only_selected="false" />
    <inkscape:path-effect
       effect="bspline"
       id="path-effect1007"
       is_visible="true"
       lpeversion="1"
       weight="33.333333"
       steps="2"
       helper_size="0"
       apply_no_weight="true"
       apply_with_weight="true"
       only_selected="false" />
    <inkscape:path-effect
       effect="bspline"
       id="path-effect1003"
       is_visible="true"
       lpeversion="1"
       weight="33.333333"
       steps="2"
       helper_size="0"
       apply_no_weight="true"
       apply_with_weight="true"
       only_selected="false" />
    <inkscape:path-effect
       effect="bspline"
       id="path-effect999"
       is_visible="true"
       lpeversion="1"
       weight="33.333333"
       steps="2"
       helper_size="0"
       apply_no_weight="true"
       apply_with_weight="true"
       only_selected="false" />
    <inkscape:path-effect
       effect="bspline"
       id="path-effect995"
       is_visible="true"
       lpeversion="1"
       weight="33.333333"
       steps="2"
       helper_size="0"
       apply_no_weight="true"
       apply_with_weight="true"
       only_selected="false" />
    <inkscape:path-effect
       effect="bspline"
       id="path-effect609"
       is_visible="true"
       lpeversion="1"
       weight="33.333333"
       steps="2"
       helper_size="0"
       apply_no_weight="true"
       apply_with_weight="true"
       only_selected="false" />
    <inkscape:path-effect
       effect="bspline"
       id="path-effect605"
       is_visible="true"
       lpeversion="1"
       weight="33.333333"
       steps="2"
       helper_size="0"
       apply_no_weight="true"
       apply_with_weight="true"
       only_selected="false" />
    <inkscape:path-effect
       effect="bspline"
       id="path-effect417"
       is_visible="true"
       lpeversion="1"
       weight="33.333333"
       steps="2"
       helper_size="0"
       apply_no_weight="true"
       apply_with_weight="true"
       only_selected="false" />
    <inkscape:path-effect
       effect="bspline"
       id="path-effect413"
       is_visible="true"
       lpeversion="1"
       weight="33.333333"
       steps="2"
       helper_size="0"
       apply_no_weight="true"
       apply_with_weight="true"
       only_selected="false" />
    <inkscape:path-effect
       effect="bspline"
       id="path-effect409"
       is_visible="true"
       lpeversion="1"
       weight="33.333333"
       steps="2"
       helper_size="0"
       apply_no_weight="true"
       apply_with_weight="true"
       only_selected="false" />
    <inkscape:path-effect
       effect="bspline"
       id="path-effect405"
       is_visible="true"
       lpeversion="1"
       weight="33.333333"
       steps="2"
       helper_size="0"
       apply_no_weight="true"
       apply_with_weight="true"
       only_selected="false" />
    <inkscape:path-effect
       effect="bspline"
       id="path-effect401"
       is_visible="true"
       lpeversion="1"
       weight="33.333333"
       steps="2"
       helper_size="0"
       apply_no_weight="true"
       apply_with_weight="true"
       only_selected="false" />
    <inkscape:path-effect
       effect="bspline"
       id="path-effect348"
       is_visible="true"
       lpeversion="1"
       weight="33.333333"
       steps="2"
       helper_size="0"
       apply_no_weight="true"
       apply_with_weight="true"
       only_selected="false" />
    <inkscape:path-effect
       effect="bspline"
       id="path-effect344"
       is_visible="true"
       lpeversion="1"
       weight="33.333333"
       steps="2"
       helper_size="0"
       apply_no_weight="true"
       apply_with_weight="true"
       only_selected="false" />
  </defs>
  <sodipodi:namedview
     id="namedview11"
     pagecolor="#ffffff"
     bordercolor="#000000"
     borderopacity="0.25"
     inkscape:showpageshadow="2"
     inkscape:pageopacity="0.0"
     inkscape:pagecheckerboard="0"
     inkscape:deskcolor="#d1d1d1"
     showgrid="false"
     inkscape:zoom="1.4142136"
     inkscape:cx="28.284271"
     inkscape:cy="181.01934"
     inkscape:window-width="1920"
     inkscape:window-height="1009"
     inkscape:window-x="-8"
     inkscape:window-y="-8"
     inkscape:window-maximized="1"
     inkscape:current-layer="g15" />
  <g
     inkscape:groupmode="layer"
     inkscape:label="Image"
     id="g15">
    <path
       style="fill:#333333;stroke-width:0.854195"
       d="M 63.373038,261.78814 81.589355,230.23657 63.066882,198.98694 25.71578,198.53405 7.6525424,230.5385 25.71578,261.4862 Z"
       id="path610" />
    <path
       style="fill:#aa0000;stroke-width:0.844019"
       d="m 141.7092,121.72881 h 38.35045 l 18.09274,-30.055725 -18.7113,-31.077039 -37.4226,0.145901 -18.86595,30.785237 z"
       id="path612" />
    <path
       style="fill:#333333;stroke-width:0.856296"
       d="m 284.21186,90.42486 19.20619,-30.535921 37.94008,0.295033 18.73391,30.535921 -18.73391,30.830957 h -38.88465 z"
       id="path614" />
    <path
       style="fill:#aa0000;stroke-width:0.858413"
       d="m 455.24828,261.2798 18.22243,-31.70087 -18.68182,-31.39606 -37.0574,0.15241 -18.37556,32.00569 18.22244,31.09123 z"
       id="path616" />
    <path
       style="fill:#a02c2c;stroke-width:0.791426"
       d="m 380.17877,382.78235 1.85036,-1.86547 v -1.41518 l -1.69616,-2.05845 -3.93202,-0.0643 -1.54197,2.05845 v 1.86547 l 1.69617,1.54384 z"
       id="path849" />
    <path
       style="fill:#a02c2c"
       d="m 39.9758,338.55422 c 6.333759,-5.41109 17.911134,-15.81395 30.201818,-25.4619 12.290684,-9.64795 25.293999,-18.54054 36.158442,-25.29408 10.86444,-6.75354 19.58924,-11.36761 29.32115,-15.60431 9.73192,-4.23669 20.47014,-8.09574 31.96389,-10.73836 11.49376,-2.64263 23.74204,-4.0688 33.09646,-3.64905 9.35441,0.41976 15.81399,2.68481 14.26187,0.0843 -1.55211,-2.60054 -11.11584,-10.06697 -21.43493,-18.37255 -10.31909,-8.30558 -21.39287,-17.44985 -34.39656,-26.84614 -13.00368,-9.3963 -27.93652,-19.04393 -41.86304,-27.34956 C 103.35837,177.0169 90.438952,170.05384 77.309409,164.1811 64.179866,158.30837 50.840984,153.5265 39.557104,150.46422 28.273224,147.40194 19.045065,146.05967 13.088451,145.51423 7.1318374,144.9688 4.4472818,145.22048 2.7693758,145.38825 c -1.677906,0.16778 -2.34904454,0.25167 1.6361421,0.96492 3.9851867,0.71326 12.6260971,2.05554 21.1834091,4.23694 8.557313,2.1814 17.030443,5.20153 27.05589,9.73196 10.025448,4.53043 21.602592,10.57068 29.698363,15.4367 8.09577,4.86602 12.709853,8.55728 16.191292,12.29075 3.481438,3.73347 5.830428,7.50863 7.927578,13.08766 2.09715,5.57903 3.94278,12.96156 4.48789,19.58908 0.5451,6.62753 -0.20993,12.49999 -1.72009,18.95978 -1.51016,6.45979 -3.77526,13.50675 -6.92131,20.26011 -3.146052,6.75336 -7.172884,13.21307 -11.996667,18.45628 -4.823783,5.24322 -10.444574,9.27005 -16.191498,14.63944 -5.746924,5.36939 -11.619384,12.08077 -16.988664,18.3729 -5.369279,6.29213 -10.235034,12.16459 -14.429802,17.65976 -4.194767,5.49516 -7.718244,10.61259 -8.934356,12.96141 -1.216112,2.34883 -0.125512,1.92936 6.208247,-3.48172 z"
       id="path346"
       inkscape:path-effect="#path-effect348"
       inkscape:original-d="m 34.732127,343.54604 c 11.578376,-10.40186 23.155751,-20.80472 34.732127,-31.20858 13.004834,-8.89194 26.008148,-17.78453 39.010726,-26.6783 8.72615,-4.61326 17.45095,-9.22734 26.17493,-13.84251 10.73965,-3.85821 21.47787,-7.71725 32.21531,-11.57738 12.24977,-1.42523 24.49805,-2.8514 36.74558,-4.2786 6.46097,2.26619 12.92055,4.53124 19.37952,6.79542 -9.56311,-7.46572 -19.12684,-14.93214 -28.69175,-22.3997 -11.07324,-9.14364 -22.14703,-18.2879 -33.22204,-27.43335 C 146.1441,203.27603 131.21126,193.62841 116.27712,183.9796 103.35818,177.01726 90.438761,170.05419 77.518081,163.08999 64.179664,158.30893 50.84078,153.52707 37.50063,148.74411 28.273102,147.40278 19.044944,146.0605 9.8156011,144.7172 c -2.6836625,0.25268 -5.3682177,0.50436 -8.0538265,0.75504 -0.6701657,0.0849 -1.34130447,0.16879 -2.01345668,0.25168 8.64225758,1.34334 17.28316908,2.68561 25.92325408,4.02692 8.474466,3.02124 16.947593,6.04137 25.41989,9.06055 11.578607,6.04149 23.155751,12.08174 34.732127,18.12111 4.615264,3.69241 9.229343,7.38368 13.842515,11.07401 2.350076,3.77631 4.699066,7.55147 7.047096,11.3257 1.84671,7.38382 3.69234,14.76635 5.53701,22.14802 -0.75406,5.8737 -1.50909,11.74616 -2.26514,17.61775 -2.26419,7.04823 -4.52928,14.09519 -6.79542,21.14129 -4.025991,6.46097 -8.052824,12.92068 -12.080737,19.37952 -5.620012,4.02799 -11.2408,8.05483 -16.8627,12.08074 -5.871699,6.71266 -11.744163,13.42404 -17.617745,20.13457 -4.864951,5.8737 -9.730707,11.74616 -14.597561,17.61774 -3.522619,5.11864 -7.046098,10.23607 -10.570647,15.35261 1.091644,-0.41848 2.182245,-0.83794 3.271867,-1.25841 z"
       sodipodi:nodetypes="ccccccccccccccccccccccccccccc" />
    <path
       style="fill:#4d4d4d"
       d="m 223.94057,236.33983 c 1.36436,-5.81365 4.21181,-19.10179 6.58474,-33.87308 2.37293,-14.77129 4.2712,-31.0252 5.39836,-46.80496 1.12717,-15.77976 1.48309,-31.08454 1.00857,-45.5592 -0.47453,-14.474656 -1.77959,-28.118452 -4.03377,-41.762614 -2.25419,-13.644162 -5.45752,-27.287958 -8.83878,-38.203275 -3.38127,-10.915318 -6.94052,-19.101595 -9.60972,-23.8475618 -2.66921,-4.7459663 -4.44884,-6.05102604 -4.15243,-4.627076 0.29641,1.42395 2.66924,5.5764112 4.62673,10.2035838 1.95748,4.627173 3.49983,9.728765 5.22012,16.906806 1.7203,7.178041 3.61856,16.432095 4.80492,25.211788 1.18636,8.779692 1.66092,17.084611 2.07619,23.966025 0.41526,6.881414 0.77119,12.338931 -0.47474,18.923501 -1.24593,6.584573 -4.09333,14.296283 -8.60173,20.880773 -4.5084,6.58449 -10.67777,12.04201 -17.14374,16.25384 -6.46597,4.21182 -13.22855,7.17786 -20.70301,9.19487 -7.47446,2.01701 -15.66074,3.08478 -24.08444,3.14421 -8.42369,0.0594 -17.08453,-0.88971 -24.4998,-2.78782 -7.41527,-1.89812 -13.58463,-4.74552 -23.19498,-6.99998 -9.610346,-2.25447 -22.660931,-3.91545 -32.864442,-4.80535 -10.203511,-0.88989 -17.559296,-1.00853 -17.618486,-0.47454 -0.05919,0.534 7.177951,1.72042 14.593318,3.67819 7.415366,1.95778 15.008435,4.68654 23.076317,7.83068 8.067883,3.14414 16.610093,6.70339 26.516983,11.21196 9.90688,4.50857 21.17784,9.96608 31.55926,16.07643 10.38142,6.11036 19.87276,12.87294 29.00837,20.58498 9.13562,7.71204 17.91511,16.37288 24.55906,24.5595 6.64395,8.18661 11.15234,15.89832 13.34687,20.58465 2.19454,4.68632 2.0759,6.34731 3.44026,0.53367 z"
       id="path399"
       inkscape:path-effect="#path-effect401"
       inkscape:original-d="m 222.45763,243.81356 c 2.84846,-13.28713 5.69592,-26.57527 8.54237,-39.8644 1.89935,-16.25357 3.79761,-32.50748 5.69492,-48.76272 0.35694,-15.30439 0.71286,-30.60917 1.0678,-45.91525 -1.30411,-13.643342 -2.60917,-27.287138 -3.91526,-40.932206 -3.20245,-13.643341 -6.40578,-27.287136 -9.61017,-40.932204 -3.55839,-8.185604 -7.11764,-16.371881 -10.67796,-24.5593223 -1.7787,-1.3041109 -3.55833,-2.60916956 -5.33899,-3.9152543 2.37393,4.1536255 4.74677,8.3060849 7.11865,12.4576276 1.5434,5.102797 3.08574,10.20439 4.62712,15.305085 1.89934,9.255422 3.79761,18.509475 5.69491,27.762712 0.47559,8.306251 0.95015,16.61117 1.42373,24.915255 0.35694,5.458736 0.71286,10.916254 1.0678,16.372882 -2.84652,7.713015 -5.69392,15.424725 -8.54238,23.135595 -6.16861,5.45873 -12.33798,10.91625 -18.50847,16.37288 -6.76185,2.96716 -13.52443,5.9332 -20.28814,8.89831 -8.1856,1.06881 -16.37188,2.13659 -24.55932,3.20339 -8.66019,-0.94818 -17.32103,-1.89731 -25.98305,-2.84746 -6.16862,-2.84652 -12.33798,-5.69392 -18.50848,-8.54238 -13.050105,-1.66005 -26.100691,-3.32103 -39.152539,-4.98305 -7.35508,-0.11764 -14.710865,-0.23628 -22.067797,-0.35593 7.238433,1.18747 14.475576,2.37388 21.711865,3.55932 7.594372,2.72987 15.187441,5.45863 22.779661,8.18644 8.54354,3.5604 17.08575,7.11965 25.62712,10.67797 11.27241,5.45874 22.54337,10.91625 33.81356,16.37288 9.49271,6.76385 18.98405,13.52643 28.47458,20.28814 8.78083,8.66219 17.56032,17.32303 26.33898,25.98305 4.50956,7.71302 9.01795,15.42473 13.52542,23.13559 -0.11764,1.66205 -0.23628,3.32304 -0.35593,4.98305 z" />
    <path
       style="fill:#a02c2c"
       d="m 272.05078,245.94999 c 1.42361,-1.89851 4.03378,-10.55951 9.07627,-19.51749 5.0425,-8.95799 12.51693,-18.21204 22.54261,-27.52581 10.02567,-9.31377 22.6017,-18.68647 36.72062,-27.16964 14.11893,-8.48316 29.77964,-16.07623 44.31376,-22.0678 14.53413,-5.99156 27.94065,-10.38131 37.72889,-13.34741 9.78825,-2.96611 15.95762,-4.50845 14.35592,-4.80501 -1.6017,-0.29656 -10.9742,0.65256 -21.35577,1.72038 -10.38156,1.06781 -21.77093,2.25421 -32.212,4.6864 -10.44107,2.4322 -19.93241,6.11009 -27.52553,8.36438 -7.59312,2.25428 -13.28792,3.08477 -20.82176,2.49172 -7.53383,-0.59306 -16.90652,-2.60996 -26.0422,-6.34707 -9.13568,-3.73711 -18.0338,-9.19463 -24.55947,-15.06736 -6.52567,-5.87273 -10.67813,-12.16073 -13.11068,-19.51679 -2.43255,-7.35605 -3.1444,-15.779615 -2.84786,-26.754418 0.29653,-10.974802 1.60159,-24.499956 3.79648,-36.542556 2.1949,-12.0426 5.27958,-22.601713 7.83045,-29.720545 2.55087,-7.1188326 4.56778,-10.7967254 3.61861,-9.7882617 -0.94917,1.0084636 -4.86434,6.7032677 -8.3644,14.6527347 -3.50005,7.949468 -6.58474,18.152655 -9.31355,29.542683 -2.72882,11.390027 -5.10165,23.966046 -6.40667,38.500212 -1.30503,14.534171 -1.54231,31.025361 -1.127,47.813701 0.4153,16.78835 1.48308,33.87275 3.55945,51.01703 2.07637,17.14428 5.16106,34.34733 6.822,45.38123 1.66094,11.0339 1.89822,15.89821 3.32183,13.99969 z"
       id="path403"
       inkscape:path-effect="#path-effect405"
       inkscape:original-d="m 270.86441,252.71187 c 2.61117,-8.66003 5.22134,-17.32103 7.83051,-25.98305 7.47573,-9.25342 14.95015,-18.50748 22.42373,-27.76271 12.57752,-9.37207 25.15354,-18.74477 37.72881,-28.11865 15.66233,-7.59237 31.32304,-15.18544 46.98306,-22.77966 13.40804,-4.38892 26.81456,-8.77866 40.22034,-13.16949 6.17061,-1.54141 12.33998,-3.08375 18.50847,-4.62712 -9.37207,0.95017 -18.74457,1.89929 -28.11864,2.84746 -11.38906,1.18747 -22.77843,2.37386 -34.1695,3.55933 -9.49071,3.67904 -18.98205,7.35693 -28.47457,11.03389 -5.69403,0.83152 -11.38883,1.66201 -17.08475,2.49152 -9.37207,-2.01599 -18.74476,-4.0329 -28.11864,-6.05084 -8.89749,-5.45674 -17.79561,-10.91426 -26.69492,-16.37289 -4.15163,-6.28726 -8.30408,-12.57527 -12.45763,-18.8644 -0.71088,-8.4229 -1.42273,-16.846462 -2.13559,-25.271191 1.30611,-13.524694 2.61117,-27.049848 3.91525,-40.576272 3.08581,-10.558533 6.1705,-21.117644 9.25424,-31.677966 2.01799,-3.67704 4.0349,-7.3549326 6.05085,-11.03389879 -3.91433,5.69602929 -7.82951,11.39083079 -11.74576,17.08474579 -3.08381,10.204594 -6.1685,20.40778 -9.25424,30.61017 -2.37193,12.577523 -4.74476,25.153543 -7.11865,37.728815 -0.23629,16.492857 -0.47357,32.984047 -0.71186,49.474577 1.06882,17.08609 2.13659,34.17049 3.20339,51.25424 3.08581,17.20473 6.17049,34.40778 9.25424,51.61017 0.23829,4.8655 0.47557,9.72981 0.71186,14.59322 z"
       sodipodi:nodetypes="ccccccccccccccccccccccccc" />
    <path
       style="fill:#4d4d4d"
       d="m 277.33078,260.83887 c 1.00872,1.12703 8.83923,-2.07636 17.20403,-3.02531 8.3648,-0.94896 17.26293,0.3561 26.16136,2.31385 8.89842,1.95774 17.79655,4.56786 27.46615,8.48329 9.6696,3.91543 20.11007,9.13567 29.60167,14.41545 9.4916,5.27978 18.03379,10.61866 26.93216,16.8476 8.89837,6.22895 18.15243,13.34745 26.16094,19.87297 8.00852,6.52552 14.7711,12.45761 20.05074,17.55941 5.27963,5.1018 9.07617,9.3729 9.07601,8.36442 -1.5e-4,-1.00848 -3.79668,-7.29649 -8.72039,-14.2966 -4.92371,-7.00012 -10.97444,-14.71183 -17.38123,-22.00855 -6.40678,-7.29673 -13.16936,-14.17794 -19.57613,-19.93231 -6.40678,-5.75436 -12.45751,-10.38139 -17.32218,-16.01688 -4.86467,-5.63549 -8.54256,-12.27942 -11.39025,-20.40665 -2.84769,-8.12723 -4.8646,-17.73721 -4.86478,-27.22904 -1.8e-4,-9.49182 2.01673,-18.86451 5.93211,-26.63612 3.91538,-7.7716 9.72882,-13.94098 17.73757,-19.93267 8.00875,-5.99169 18.21194,-11.80514 30.19528,-16.9662 11.98333,-5.16107 25.74576,-9.66946 35.5934,-12.33892 9.84763,-2.66946 15.77971,-3.49995 14.65258,-3.79651 -1.12714,-0.29656 -9.31342,-0.0593 -19.27979,1.72034 -9.96638,1.77961 -21.7119,5.10158 -34.16976,9.66942 -12.45785,4.56785 -25.62708,10.38129 -37.84761,16.61019 -12.22054,6.22889 -23.4915,12.87283 -34.94083,20.34751 -11.44932,7.47468 -23.07621,15.7796 -34.88146,24.97464 -11.80525,9.19505 -23.78807,19.27959 -32.68646,27.05086 -8.8984,7.77126 -14.71184,13.22878 -13.70313,14.35581 z"
       id="path407"
       inkscape:path-effect="#path-effect409"
       inkscape:original-d="m 270.50848,265.1695 c 7.83151,-3.20239 15.66202,-6.40578 23.49153,-9.61017 8.89948,1.30611 17.79761,2.61117 26.69491,3.91525 8.89948,2.61122 17.79761,5.22134 26.69492,7.83051 10.44188,5.22144 20.88235,10.44168 31.32203,15.66102 8.54355,5.34009 17.08575,10.67896 25.62712,16.01695 9.25542,7.11978 18.50948,14.23828 27.76271,21.35593 6.76385,5.93332 13.52643,11.86541 20.28814,17.79661 3.79769,4.27227 7.59422,8.54337 11.38983,12.81356 -3.79569,-6.28726 -7.59222,-12.57527 -11.38983,-18.86441 -6.04997,-7.71102 -12.1007,-15.42273 -18.15254,-23.13559 -6.76185,-6.8805 -13.52443,-13.76171 -20.28814,-20.64407 -6.04997,-4.62621 -12.10069,-9.25324 -18.15254,-13.88136 -3.67704,-6.6432 -7.35493,-13.28713 -11.0339,-19.9322 -2.01599,-9.60936 -4.0329,-19.21934 -6.05085,-28.83051 2.01799,-9.37207 4.0349,-18.74476 6.05085,-28.11864 5.81467,-6.16862 11.62812,-12.33799 17.44068,-18.50848 10.20459,-5.81267 20.40778,-11.62612 30.61017,-17.44068 13.76399,-4.50756 27.52642,-9.01595 41.28813,-13.52542 5.93333,-0.82953 11.86541,-1.66002 17.79661,-2.49153 -8.1856,0.2383 -16.37188,0.47558 -24.55932,0.71187 -11.745,3.3231 -23.49052,6.64507 -35.23729,9.9661 -13.16875,5.81468 -26.33798,11.62812 -39.50847,17.44068 -11.27041,6.6452 -22.54138,13.28913 -33.81356,19.9322 -11.62635,8.30625 -23.25324,16.61117 -34.88136,24.91526 -11.98229,10.08594 -23.9651,20.17049 -35.94915,30.25423 -5.81268,5.45874 -11.62612,10.91626 -17.44068,16.37289 z"
       sodipodi:nodetypes="ccccccccccccccccccccccccccc" />
    <path
       style="fill:#4d4d4d"
       d="m 155.39855,348.20625 c -0.69687,-0.0449 -1.66165,-0.15029 -2.39634,0.13263 -0.73468,0.28292 -1.23804,0.95406 -1.88757,1.05919 -0.64953,0.10512 -1.44652,-0.35629 -1.74082,-1.02743 -0.2943,-0.67114 -0.0846,-1.55201 0.6919,-2.16069 0.77648,-0.60869 2.11875,-0.94426 2.87337,-1.59396 0.75463,-0.6497 0.92241,-1.61446 0.67088,-4.257 -0.25153,-2.64254 -0.92267,-6.963 -1.84553,-14.11508 -0.92287,-7.15208 -2.09736,-17.13527 -2.95722,-23.38537 -0.85986,-6.2501 -1.40517,-8.76687 -1.8288,-10.20111 -0.42363,-1.43423 -0.72624,-1.78578 -1.13086,-2.0164 -0.40463,-0.23063 -0.91148,-0.33949 -1.47355,-0.28977 -0.56208,0.0497 -1.1788,0.25844 -1.90679,0.61451 -0.72799,0.35607 -1.5669,0.85943 -2.23773,0.83905 -0.67083,-0.0204 -1.17418,-0.56567 -1.42635,-1.111 -0.25216,-0.54534 -0.25216,-1.09064 -3.6e-4,-1.53166 0.25181,-0.44103 0.75516,-0.77659 2.07681,-1.11216 1.32165,-0.33557 3.4609,-0.67114 6.20121,-0.77305 2.74031,-0.10191 6.08118,0.0297 8.38833,0.13455 2.30716,0.10488 3.58027,0.18303 4.59393,-0.0506 1.01367,-0.23369 1.7687,-0.77899 2.37728,-0.75739 0.60857,0.0216 1.06998,0.60885 1.34229,1.17515 0.27231,0.5663 0.35621,1.1116 0.0416,1.65629 -0.31462,0.5447 -1.0277,1.09 -1.9501,1.34176 -0.92241,0.25176 -2.05495,0.20981 -2.95675,0.10507 -0.90179,-0.10474 -1.57293,-0.27253 -2.34899,-0.41941 -0.77606,-0.14688 -1.65693,-0.27272 -2.16444,-0.0769 -0.50751,0.19577 -0.64034,0.7126 -0.59812,1.32109 0.0422,0.60849 0.25895,1.3081 0.59526,2.47414 0.33631,1.16603 0.79222,2.79841 1.20483,5.86903 0.41262,3.07063 0.78213,7.57926 1.22535,12.09041 0.44322,4.51115 0.96006,9.02437 1.11832,13.88692 0.15826,4.86255 -0.0419,10.0742 -0.23128,13.13629 -0.18938,3.0621 -0.36786,3.97447 -0.38865,4.59926 -0.0208,0.6248 0.11546,0.96148 0.55672,1.12867 0.44127,0.16719 1.18701,0.16606 1.94452,0.20463 0.7575,0.0386 1.52663,0.11672 2.05088,0.32695 0.52424,0.21023 0.80376,0.55154 0.94308,0.99482 0.13931,0.44327 0.13931,0.98857 -0.1542,1.44941 -0.29351,0.46085 -0.88076,0.83836 -1.48857,0.98533 -0.60781,0.14696 -1.237,0.0631 -1.71681,-0.0885 -0.47981,-0.15163 -0.81026,-0.37159 -1.20405,-0.4738 -0.39379,-0.10221 -0.85069,-0.0859 -1.29371,-0.07 -0.44302,0.0159 -0.87208,0.0312 -1.56895,-0.0137 z"
       id="path411"
       inkscape:path-effect="#path-effect413"
       inkscape:original-d="m 155.66537,348.26657 c -0.96379,-0.10436 -1.92857,-0.20973 -2.89435,-0.31609 -0.50237,0.67216 -1.00573,1.3433 -1.51009,2.01345 -0.79601,-0.46042 -1.59299,-0.92183 -2.39098,-1.38425 0.21074,-0.8799 0.42047,-1.76077 0.62921,-2.64266 1.34333,-0.33458 2.6856,-0.67015 4.02691,-1.00673 0.16879,-0.9638 0.33657,-1.92856 0.50336,-2.89434 -0.67016,-4.31963 -1.3413,-8.64009 -2.01345,-12.96163 -1.17354,-9.98259 -2.34804,-19.96578 -3.52355,-29.95017 -0.54433,-2.51587 -1.08963,-5.03264 -1.63594,-7.55046 -0.30162,-0.35056 -0.60423,-0.70211 -0.90785,-1.05467 -0.50587,-0.10787 -1.01272,-0.21673 -1.52058,-0.32659 -0.61572,0.20974 -1.23244,0.41847 -1.85016,0.62621 -0.83796,0.50438 -1.67688,1.00773 -2.51682,1.5101 -0.50238,-0.54433 -1.00573,-1.08963 -1.5101,-1.63594 10e-4,-0.54432 10e-4,-1.08962 0,-1.63593 0.50438,-0.33458 1.00773,-0.67015 1.5101,-1.00673 2.14034,-0.33458 4.27959,-0.67015 6.41789,-1.00673 3.3421,0.13259 6.68298,0.26417 10.02309,0.39475 1.27417,0.0792 2.54728,0.15731 3.81942,0.23446 0.75607,-0.54432 1.5111,-1.08963 2.26514,-1.63594 0.46243,0.58827 0.92384,1.17552 1.38425,1.76178 0.0849,0.54632 0.16879,1.09162 0.25169,1.63593 -0.71212,0.54632 -1.4252,1.09162 -2.1393,1.63594 -1.13159,-0.041 -2.26414,-0.0829 -3.39771,-0.12585 -0.67016,-0.16679 -1.3413,-0.33457 -2.01346,-0.50336 -0.8799,-0.12484 -1.76077,-0.25068 -2.64266,-0.37752 -0.13183,0.51785 -0.26466,1.03468 -0.39849,1.55054 0.21773,0.70063 0.43445,1.40023 0.65017,2.09885 0.45694,1.63346 0.91285,3.26584 1.36778,4.89731 0.37054,4.50989 0.74006,9.01853 1.10859,13.52642 0.51786,4.51438 1.0347,9.0276 1.55055,13.53989 -0.19916,5.21295 -0.39932,10.4246 -0.60048,15.63554 -0.17749,0.91343 -0.35597,1.82581 -0.53546,2.73725 0.13726,0.33771 0.27352,0.67439 0.40878,1.0101 0.74676,-1.2e-4 1.4925,-0.001 2.23725,-0.003 0.77017,0.0792 1.5393,0.1573 2.30746,0.23446 0.28053,0.34232 0.56005,0.68363 0.83857,1.02395 0.001,0.54632 0.001,1.09162 0,1.63594 -0.58627,0.37853 -1.17352,0.75604 -1.76178,1.13256 -0.62822,-0.0829 -1.25741,-0.16678 -1.88761,-0.25168 -0.32947,-0.21897 -0.65991,-0.43893 -0.99138,-0.65991 -0.45593,0.0174 -0.91282,0.0337 -1.37076,0.0491 -0.4281,0.0163 -0.85716,0.0317 -1.28725,0.0461 z"
       sodipodi:nodetypes="cccccccccccccccccccccccccccccccccccccccccccc" />
    <path
       style="fill:#800000"
       d="m 169.85189,332.97479 c 0.0346,0.0854 0.47507,0.42092 0.14948,1.0182 -0.32559,0.59727 -1.41619,1.45717 -2.36015,2.48505 -0.94396,1.02788 -1.74094,2.22335 -2.30724,3.3876 -0.56631,1.16425 -0.90188,2.2968 -0.94359,3.39818 -0.0417,1.10138 0.20996,2.171 0.68227,2.99933 0.47231,0.82833 1.16443,1.41558 2.37036,1.67728 1.20594,0.26169 2.92573,0.19877 4.59285,-0.25224 1.66712,-0.45102 3.28205,-1.28995 4.52972,-2.34892 1.24767,-1.05897 2.12854,-2.33833 2.66337,-3.50208 0.53482,-1.16375 0.72358,-2.21241 0.7447,-3.31337 0.0211,-1.10096 -0.1257,-2.25448 -0.54483,-3.29267 -0.41912,-1.03819 -1.11124,-1.96101 -1.91874,-3.07261 -0.80751,-1.1116 -1.73033,-2.41193 -2.66356,-3.53409 -0.93323,-1.12216 -1.87702,-2.06595 -2.49604,-2.9782 -0.61902,-0.91226 -0.91265,-1.79313 -0.88148,-2.58005 0.0312,-0.78693 0.3877,-1.47904 0.8393,-1.78326 0.45161,-0.30422 0.99691,-0.22033 1.40568,0.0528 0.40877,0.27316 0.68141,0.73457 0.98543,1.37429 0.30402,0.63971 0.63959,1.45766 1.05935,2.08673 0.41976,0.62907 0.92311,1.0695 1.42617,1.1738 0.50307,0.1043 1.00642,-0.1264 1.38362,-0.50362 0.3772,-0.37721 0.62888,-0.90154 0.59778,-1.51988 -0.0311,-0.61833 -0.34569,-1.33141 -0.75451,-2.01311 -0.40883,-0.68169 -0.91218,-1.33186 -1.60416,-1.9298 -0.69198,-0.59794 -1.57285,-1.14324 -2.45378,-1.46863 -0.88093,-0.32539 -1.7618,-0.43025 -2.7372,-0.4094 -0.97541,0.0208 -2.04504,0.16766 -2.93676,0.50324 -0.89172,0.33557 -1.60481,0.8599 -2.15031,1.54184 -0.5455,0.68194 -0.92302,1.52087 -1.14317,2.42297 -0.22015,0.90211 -0.28307,1.86687 -0.16751,2.85277 0.11556,0.98589 0.40919,1.9926 1.60504,3.5026 1.19584,1.51001 3.29315,3.52343 4.56178,5.09657 1.26862,1.57314 1.70906,2.70568 1.86607,3.83809 0.15702,1.13242 0.0312,2.26497 -0.15764,3.0932 -0.18881,0.82823 -0.44049,1.35256 -0.89132,1.93961 -0.45084,0.58705 -1.101,1.23722 -1.93956,1.65662 -0.83855,0.4194 -1.86624,0.60816 -2.53721,0.59812 -0.67098,-0.01 -0.98557,-0.21976 -1.07011,-0.68118 -0.0846,-0.46143 0.0623,-1.17452 0.47124,-2.08711 0.40898,-0.9126 1.08012,-2.02417 1.89827,-2.93673 0.81815,-0.91257 1.78291,-1.62565 2.37002,-2.12886 0.58711,-0.50321 0.79683,-0.79683 0.80232,-1.18456 0.005,-0.38773 -0.19391,-0.87056 -0.50106,-1.37528 -0.30714,-0.50472 -0.72239,-1.0312 -1.1154,-1.37732 -0.39302,-0.34612 -0.76411,-0.51131 -0.72949,-0.42596 z"
       id="path603"
       inkscape:path-effect="#path-effect605"
       inkscape:original-d="m 169.44496,332.72371 c 0.44144,0.33658 0.88189,0.67215 1.32133,1.00673 -1.08964,0.86093 -2.18024,1.72083 -3.27187,2.57974 -0.79601,1.19651 -1.59298,2.39198 -2.39098,3.58647 -0.33458,1.13359 -0.67015,2.26614 -1.00672,3.39771 0.25268,1.07067 0.50436,2.14029 0.75504,3.20894 0.69314,0.58827 1.38525,1.17552 2.07638,1.76178 1.72086,-0.0619 3.44065,-0.12484 5.15948,-0.18876 1.61599,-0.83796 3.23092,-1.67688 4.84488,-2.51682 0.88191,-1.27841 1.76278,-2.55777 2.64266,-3.83816 0.18977,-1.04769 0.37853,-2.09635 0.56629,-3.14602 -0.14582,-1.15257 -0.29263,-2.30609 -0.44045,-3.46063 -0.69113,-0.92185 -1.38325,-1.84467 -2.07637,-2.7685 -0.92185,-1.29939 -1.84467,-2.59972 -2.76851,-3.90108 -0.94282,-0.94282 -1.88661,-1.88661 -2.83142,-2.83142 -0.29263,-0.8799 -0.58626,-1.76077 -0.88089,-2.64266 0.35756,-0.69114 0.7141,-1.38325 1.06965,-2.07638 0.54633,0.0849 1.09163,0.16879 1.63594,0.25168 0.27366,0.46243 0.54631,0.92384 0.81796,1.38426 0.33659,0.81898 0.67216,1.63693 1.00673,2.4539 0.50438,0.44145 1.00773,0.88188 1.51009,1.32133 0.50438,-0.22972 1.00773,-0.46042 1.5101,-0.69213 0.25268,-0.52335 0.50436,-1.04767 0.75504,-1.57301 -0.31361,-0.71212 -0.6282,-1.4252 -0.9438,-2.1393 -0.50238,-0.64919 -1.00573,-1.29936 -1.5101,-1.95054 -0.8799,-0.54432 -1.76077,-1.08962 -2.64266,-1.63593 -0.8799,-0.10387 -1.76077,-0.20873 -2.64266,-0.3146 -1.06867,0.14782 -2.1383,0.29463 -3.20895,0.44044 -0.71211,0.52535 -1.4252,1.04968 -2.1393,1.57301 -0.37653,0.83996 -0.75404,1.67889 -1.13256,2.51683 -0.0619,0.9658 -0.12485,1.93056 -0.18877,2.89434 0.29464,1.00775 0.58826,2.01446 0.88089,3.02018 2.09839,2.0145 4.1957,4.02792 6.29205,6.04037 0.44146,1.1336 0.88189,2.26614 1.32133,3.39771 -0.12484,1.13359 -0.25068,2.26614 -0.37752,3.39771 -0.25069,0.52535 -0.50236,1.04968 -0.75505,1.57301 -0.64919,0.65119 -1.29935,1.30136 -1.95053,1.95054 -1.02672,0.18976 -2.05441,0.37852 -3.08311,0.56628 -0.31361,-0.20874 -0.6282,-0.41847 -0.9438,-0.6292 0.14781,-0.71211 0.29462,-1.4252 0.44044,-2.1393 0.67216,-1.11062 1.3433,-2.22219 2.01346,-3.33479 0.9658,-0.71211 1.93056,-1.42519 2.89434,-2.13929 0.21074,-0.29264 0.42047,-0.58626 0.6292,-0.88089 -0.1984,-0.48185 -0.39779,-0.96468 -0.59819,-1.44852 -0.41426,-0.5255 -0.82951,-1.05197 -1.24576,-1.57945 -0.37011,-0.1642 -0.74121,-0.32939 -1.11331,-0.49558 z" />
    <path
       id="path607"
       style="fill:#800000"
       d="m 205.91602,318.18945 c -0.24255,-0.007 -0.47568,-0.001 -0.69336,0.0176 -0.87072,0.0732 -1.48038,0.34611 -1.93164,0.73438 -0.45125,0.38828 -0.74338,0.89095 -0.95313,1.31054 -0.20975,0.41959 -0.33623,0.75451 -0.68164,0.89063 -0.34542,0.13611 -0.91271,0.0731 -1.38477,-0.23047 -0.47206,-0.30361 -0.84889,-0.84889 -1.37304,-1.31055 -0.52414,-0.46166 -1.19506,-0.83896 -2.19141,-1.01758 -0.99636,-0.17862 -2.31729,-0.16621 -3.52344,0.01 -1.20615,0.1677 -2.29781,0.4821 -3.18945,0.91211 -0.89164,0.43 -1.58341,0.97643 -2.35937,1.94141 -0.77618,0.96477 -1.63598,2.34859 -2.47461,3.21875 -0.83862,0.86995 -1.65597,1.22672 -2.51758,1.54687 -0.86146,0.32014 -1.76779,0.60483 -2.6211,1.01367 -0.85309,0.40884 -1.65304,0.94195 -2.25,1.35352 -0.59696,0.41156 -0.99006,0.70174 -1.20898,0.93945 -0.21893,0.23771 -0.26486,0.42175 -0.13086,0.71485 0.13399,0.29288 0.44701,0.69392 0.76953,1.14257 0.32252,0.44865 0.65622,0.94534 0.85352,1.10547 0.19731,0.16013 0.258,-0.0152 0.28906,-0.10351 0.0311,-0.0883 0.0321,-0.0882 -0.0254,-0.31836 -0.0575,-0.23012 -0.17391,-0.69179 0.125,-1.11719 0.2989,-0.4254 1.01232,-0.81274 1.7832,-1.16406 0.77088,-0.35131 1.59978,-0.66581 2.21875,-0.8125 0.61897,-0.14668 1.02725,-0.12725 1.22071,0.14062 0.19347,0.26786 0.17193,0.78199 0.0254,1.38477 -0.1469,0.60263 -0.41896,1.29443 -0.57618,2.30664 -0.15721,1.01206 -0.19924,2.34501 -0.11523,3.63476 0.084,1.28997 0.29296,2.53752 0.74414,3.76953 0.45118,1.23223 1.14393,2.4499 1.88867,3.43555 0.74474,0.98565 1.54158,1.7397 2.61133,2.34766 1.06975,0.60795 2.41281,1.06986 3.79688,1.17969 1.38385,0.10984 2.81039,-0.13097 3.96875,-0.74414 1.15815,-0.61339 2.04932,-1.60031 2.66796,-2.50196 0.61864,-0.90165 0.96478,-1.71883 1.16407,-2.3164 0.1993,-0.59757 0.25185,-0.97612 0.29882,-1.3379 0.0472,-0.36156 0.0881,-0.70741 0.22461,-0.96484 0.13647,-0.25743 0.36782,-0.42575 0.55665,-0.23633 0.18862,0.18942 0.33569,0.73492 0.39843,1.25391 0.0627,0.51898 0.0417,1.01149 0.28321,1.70898 0.24156,0.69749 0.74621,1.60074 1.4121,2.42383 0.66611,0.82309 1.49266,1.56793 2.57813,2.16016 1.08546,0.59223 2.42817,1.03235 3.75977,1.10547 1.33139,0.0731 2.65345,-0.22098 3.89062,-0.78711 1.23716,-0.56628 2.38975,-1.40487 3.22852,-2.22266 0.83878,-0.81779 1.36476,-1.61502 1.82617,-2.32812 0.46142,-0.71309 0.85821,-1.34316 1.13086,-1.95118 0.27266,-0.60801 0.42071,-1.19453 0.34765,-1.83398 -0.0731,-0.63945 -0.36643,-1.33228 -0.80664,-1.98242 -0.44021,-0.65028 -1.02851,-1.25799 -1.40625,-1.53125 -0.37774,-0.27327 -0.54587,-0.21139 -0.51953,-0.0156 0.0263,0.19468 0.24742,0.52058 0.18946,1.0918 -0.0582,0.57121 -0.39345,1.38741 -0.84961,2.27344 -0.45616,0.88588 -1.03288,1.8421 -1.67774,2.6914 -0.64487,0.8493 -1.35848,1.59277 -1.94531,2.04883 -0.58698,0.45606 -1.04867,0.62406 -1.625,0.63477 -0.57648,0.0107 -1.26842,-0.13647 -1.8086,-0.42969 -0.53996,-0.29323 -0.92763,-0.73341 -1.17968,-1.27344 -0.25204,-0.54003 -0.36726,-1.17875 -0.33594,-2.36914 0.0313,-1.19039 0.20865,-2.93183 0.55469,-5.45898 0.34605,-2.52722 0.86034,-5.8425 1.20117,-8.10742 0.34082,-2.26499 0.50911,-3.48106 0.60352,-4.29883 0.0944,-0.81792 0.11486,-1.23811 -0.19922,-1.75196 -0.31407,-0.51385 -0.96412,-1.12082 -1.85547,-1.48828 -0.66851,-0.27559 -1.47374,-0.41578 -2.20117,-0.4375 z m -9.09571,3.97461 c 0.11421,-0.003 0.22841,0.0144 0.3418,0.0254 0.11404,0.0115 0.22202,0.0484 0.33008,0.084 0.10011,0.039 0.20053,0.0735 0.29883,0.11718 0.0966,0.0496 0.19195,0.10231 0.28515,0.15821 0.1041,0.0671 0.18808,0.1602 0.26758,0.2539 0.0918,0.11001 0.17445,0.22546 0.25195,0.34571 0.0707,0.10858 0.14243,0.21745 0.20313,0.33203 0.058,0.1041 0.10217,0.21502 0.13867,0.32812 0.0434,0.11841 0.0839,0.23609 0.11133,0.35938 0.0316,0.14485 0.0651,0.28933 0.0898,0.43555 0.0315,0.15379 0.055,0.30865 0.0703,0.46484 0.0168,0.18078 0.0197,0.36171 0.0117,0.54297 -0.009,0.1703 -0.0184,0.34123 -0.0234,0.51172 -0.005,0.15058 -0.005,0.30248 -0.006,0.45312 0.004,0.17564 -0.005,0.35026 -0.0176,0.52539 -0.0113,0.18374 -0.0346,0.36639 -0.0586,0.54883 -0.0255,0.20901 -0.0381,0.41922 -0.0566,0.62891 -0.0189,0.22966 -0.0282,0.45978 -0.0469,0.68945 -0.0188,0.18092 -0.0253,0.36186 -0.041,0.54297 -0.0138,0.1696 -0.0314,0.33881 -0.0508,0.50781 -0.0233,0.19187 -0.0572,0.38221 -0.0918,0.57227 -0.0315,0.20014 -0.0643,0.40031 -0.0879,0.60156 -0.0205,0.17741 -0.0396,0.35437 -0.0644,0.53125 -0.0285,0.18272 -0.0726,0.36321 -0.11523,0.54297 -0.0354,0.18182 -0.0964,0.35583 -0.14844,0.5332 -0.0517,0.17323 -0.11412,0.34445 -0.16602,0.51758 -0.0383,0.13091 -0.0719,0.26277 -0.11328,0.39258 -0.0372,0.11609 -0.0734,0.23244 -0.0996,0.35156 -0.0279,0.14645 -0.0701,0.28903 -0.11914,0.42969 -0.0365,0.11469 -0.0758,0.22833 -0.10351,0.3457 -0.033,0.12845 -0.0796,0.25376 -0.12305,0.37891 -0.0383,0.13072 -0.0752,0.2618 -0.11328,0.39258 -0.029,0.11813 -0.06,0.23592 -0.084,0.35546 -0.0282,0.10737 -0.0491,0.21616 -0.0742,0.32422 -0.0324,0.12295 -0.0616,0.24713 -0.0899,0.3711 -0.0296,0.12266 -0.0599,0.24543 -0.0996,0.36523 -0.0296,0.0936 -0.0601,0.18595 -0.084,0.28125 -0.032,0.1212 -0.0747,0.24036 -0.10742,0.36133 -0.0418,0.13197 -0.0703,0.26724 -0.0996,0.40234 -0.0229,0.13336 -0.0518,0.26466 -0.082,0.39649 -0.0358,0.14951 -0.0728,0.29892 -0.11329,0.44726 -0.0376,0.12594 -0.0804,0.24943 -0.11914,0.375 -0.0297,0.11663 -0.0723,0.22843 -0.11718,0.33985 -0.0419,0.11585 -0.0882,0.23286 -0.13282,0.34765 -0.0353,0.0949 -0.0674,0.18976 -0.10156,0.28516 -0.0331,0.0967 -0.0634,0.19391 -0.10547,0.28711 -0.0412,0.0833 -0.0781,0.16855 -0.11914,0.25195 -0.0542,0.0937 -0.1036,0.19151 -0.1543,0.28711 -0.0376,0.0831 -0.082,0.15953 -0.13085,0.23633 -0.045,0.0786 -0.0995,0.15392 -0.14454,0.23242 -0.0516,0.0702 -0.0811,0.15001 -0.125,0.22461 -0.0358,0.0668 -0.0872,0.12361 -0.12109,0.19141 -0.0407,0.0787 -0.0941,0.1497 -0.14648,0.2207 -0.0626,0.0781 -0.1213,0.15998 -0.1836,0.23828 -0.0686,0.089 -0.143,0.17281 -0.2207,0.25391 -0.0694,0.0728 -0.1462,0.13738 -0.2168,0.20898 -0.0711,0.079 -0.1581,0.14118 -0.24218,0.20508 -0.0825,0.0644 -0.17038,0.11903 -0.26368,0.16601 -0.0987,0.0508 -0.2056,0.0762 -0.31445,0.0938 -0.0965,0.0139 -0.19372,0.0185 -0.29102,0.0215 -0.0907,0.002 -0.18078,0.003 -0.27148,0.004 -0.10441,0.005 -0.20706,-0.003 -0.30859,-0.0274 -0.0729,-0.0217 -0.14555,-0.0456 -0.21875,-0.0664 -0.0831,-0.0297 -0.16836,-0.0518 -0.25196,-0.0801 -0.078,-0.0347 -0.15532,-0.0688 -0.23242,-0.10547 -0.0958,-0.0403 -0.18382,-0.0967 -0.26562,-0.16016 -0.0685,-0.0564 -0.14085,-0.11082 -0.20703,-0.16992 -0.0624,-0.0632 -0.12716,-0.12225 -0.18946,-0.18555 -0.0447,-0.0563 -0.1022,-0.0995 -0.1543,-0.14843 -0.063,-0.064 -0.11718,-0.13328 -0.17578,-0.20118 -0.0693,-0.0675 -0.12151,-0.10573 -0.18359,-0.17773 -0.0612,-0.0319 -0.12004,-0.15106 -0.16406,-0.22656 -0.0879,-0.10144 0.0175,0.0344 -0.0879,-0.0996 -0.0499,-0.0553 -0.0864,-0.10356 -0.10546,-0.16207 -0.0531,-0.0461 -0.20292,-0.24938 -0.25,-0.46875 -0.0246,-0.11461 -0.0383,-0.23075 -0.0606,-0.3457 -0.0176,-0.10353 -0.0478,-0.20418 -0.0703,-0.30665 -0.0296,-0.0861 -0.0381,-0.17842 -0.0625,-0.26562 -0.027,-0.0879 -0.0438,-0.17843 -0.0547,-0.26953 -0.005,-0.10057 -0.0146,-0.19893 -0.0273,-0.29883 -0.024,-0.1168 -0.0422,-0.23495 -0.0547,-0.35352 -0.0226,-0.14017 -0.0385,-0.28204 -0.0488,-0.42382 -0.0103,-0.14518 -0.0126,-0.29009 -0.0156,-0.43555 -0.002,-0.12729 -0.003,-0.25551 -0.004,-0.38281 0.004,-0.13708 -0.003,-0.27349 -0.0137,-0.41016 -0.0124,-0.14096 -0.0194,-0.28243 -0.0234,-0.42383 -0.004,-0.15649 -0.007,-0.31221 -0.008,-0.46875 -6.2e-4,-0.13727 -0.002,-0.27484 -0.002,-0.41211 0,-0.12448 2e-5,-0.24856 0,-0.37304 v -0.40235 c 0,-0.11483 1e-5,-0.22892 0,-0.34375 -0.0104,-0.11589 -0.0213,-0.23152 -0.0293,-0.34765 -0.008,-0.11903 -0.01,-0.23841 -0.0117,-0.35742 -0.002,-0.12704 -0.004,-0.25381 -0.004,-0.38086 -3.1e-4,-0.15534 6e-5,-0.31146 0,-0.4668 -5e-5,-0.14326 1e-5,-0.28643 0,-0.42969 0,-0.14048 1e-5,-0.28139 0,-0.42187 v -0.48243 -0.49609 -0.46094 c -10e-4,-0.13166 -5.8e-4,-0.26338 0.0117,-0.39453 0.009,-0.11352 0.0255,-0.22548 0.043,-0.33789 0.0221,-0.11659 0.0511,-0.23174 0.0762,-0.34766 0.0196,-0.10279 0.0503,-0.20294 0.0664,-0.30664 0.0315,-0.11852 0.064,-0.23694 0.0957,-0.35546 0.0333,-0.1416 0.0696,-0.2825 0.10352,-0.42383 0.0459,-0.15436 0.0907,-0.30897 0.13086,-0.46485 0.0322,-0.15471 0.0747,-0.30665 0.12304,-0.45703 0.041,-0.14074 0.0767,-0.28141 0.125,-0.41992 0.0541,-0.14355 0.11293,-0.28534 0.16993,-0.42773 0.0664,-0.15618 0.13965,-0.30899 0.22265,-0.45704 0.0861,-0.14176 0.1613,-0.29089 0.2461,-0.43359 0.0959,-0.15326 0.18509,-0.31022 0.27539,-0.4668 0.091,-0.15558 0.18795,-0.30788 0.28906,-0.45703 0.10904,-0.14964 0.22762,-0.29143 0.34375,-0.43554 0.10794,-0.12907 0.21106,-0.263 0.31836,-0.39258 0.10682,-0.13353 0.23199,-0.24934 0.35547,-0.36719 0.10822,-0.1137 0.22692,-0.21765 0.34375,-0.32227 0.10915,-0.0935 0.21216,-0.1925 0.32031,-0.2871 0.10093,-0.0841 0.1913,-0.17984 0.2832,-0.27344 0.0917,-0.0853 0.18243,-0.17367 0.26953,-0.26367 0.0753,-0.0848 0.15713,-0.16335 0.23243,-0.24805 0.0711,-0.0811 0.14807,-0.15511 0.23047,-0.22461 0.079,-0.0689 0.1662,-0.12835 0.2539,-0.18555 0.092,-0.0585 0.19112,-0.1 0.29102,-0.14258 0.10377,-0.0405 0.2123,-0.0659 0.31836,-0.0996 0.0969,-0.0358 0.19752,-0.0635 0.29492,-0.0977 0.11115,-0.0399 0.22693,-0.0586 0.34375,-0.0723 0.10797,-0.0117 0.2177,-0.0146 0.32617,-0.0176 0.12789,-0.002 0.25491,-0.002 0.38281,-0.002 z m -1.88086,2.08203 c -0.0151,0.0195 -0.0303,0.0388 -0.0449,0.0586 0.0118,0.0308 0.0234,0.0571 0.0352,0.0879 0.0151,-0.0103 0.0299,-0.0213 0.0449,-0.0312 -0.0116,-0.0387 -0.0231,-0.0767 -0.0352,-0.11524 z m -0.13867,0.18946 c -0.0193,0.0275 -0.0393,0.0545 -0.0586,0.082 0.0231,-0.0143 0.0455,-0.0301 0.0684,-0.0449 -0.003,-0.0125 -0.007,-0.0246 -0.01,-0.0371 z m 0.29297,1.05859 c -0.0433,0.0229 -0.089,0.0407 -0.13281,0.0625 0.0181,0.0344 0.0354,0.0683 0.0566,0.0996 0.004,0.0278 0.0108,0.0544 0.0156,0.082 0.0216,-0.081 0.037,-0.16359 0.0606,-0.24414 z m -0.86133,4.48633 c 0.006,0.0199 0.0158,0.0336 0.0215,0.0547 -0.001,-0.0177 -0.004,-0.0351 -0.006,-0.0527 -0.005,-1.6e-4 -0.0106,-0.002 -0.0156,-0.002 z m -2.53711,1.30469 c -0.008,0.035 -0.013,0.0706 -0.0215,0.10546 0.007,-8.6e-4 0.0143,-5e-5 0.0215,-0.002 -1.2e-4,-0.0124 1.2e-4,-0.0247 0,-0.0371 -2e-4,-0.0221 1.6e-4,-0.0443 0,-0.0664 z"
       sodipodi:nodetypes="ccsssssscsccscsscsssssssscsssssscsscscsscsscssssssccsscscsssssssccsccccccccccccccccccccccccccccccccccccccccccccccccccccccccccccccccccccccccccsccccccccccccsssccccsssccccccccccccccccccccccccccccccccssccccsccccccscccsscccccsccsss" />
    <path
       style="fill:#4d4d4d"
       d="m 248.28287,299.88743 c 0,0.33932 0,1.01697 0.22152,1.53251 0.22153,0.51554 0.66346,0.86909 1.17899,1.03067 0.51553,0.16158 1.10477,0.13211 1.6346,-0.14774 0.52984,-0.27985 1.00123,-0.81017 1.23696,-1.69359 0.23573,-0.88343 0.23573,-2.12084 2.5e-4,-3.37292 -0.23548,-1.25207 -0.70688,-2.51896 -1.31071,-3.71223 -0.60384,-1.19327 -1.3404,-2.31284 -2.45979,-3.32954 -1.1194,-1.01669 -2.62197,-1.93002 -4.33084,-2.56373 -1.70887,-0.6337 -3.62392,-0.98725 -5.59816,-0.92851 -1.97423,0.0587 -4.00712,0.53014 -6.01092,1.57612 -2.0038,1.04599 -3.97777,2.66641 -5.73094,4.55219 -1.75318,1.88578 -3.28521,4.03652 -4.80259,6.61464 -1.51738,2.57813 -3.01995,5.58328 -4.11006,8.57395 -1.09011,2.99066 -1.76774,5.96634 -2.13595,9.10429 -0.36822,3.13794 -0.42714,6.43771 -0.1618,9.14841 0.26535,2.7107 0.85459,4.83198 1.72388,7.10064 0.86928,2.26867 2.01831,4.68457 3.28542,6.62904 1.26711,1.94447 2.65183,3.41758 4.28714,4.66957 1.63532,1.25199 3.5209,2.28317 6.49658,2.75423 2.97567,0.47107 7.04146,0.38269 10.45886,-0.39818 3.4174,-0.78086 6.18685,-2.25397 8.45528,-4.05108 2.26843,-1.7971 4.03616,-3.91838 5.08203,-5.30298 1.04587,-1.38461 1.36996,-2.03278 1.70919,-2.4161 0.33922,-0.38332 0.69276,-0.50117 0.94299,-0.11748 0.25024,0.38369 0.39755,1.26757 0.3974,2.38704 -1.4e-4,1.11947 -0.14745,2.47473 0.14747,4.09536 0.29491,1.62064 1.03147,3.50622 1.70923,4.97935 0.67776,1.47314 1.29646,2.53378 2.22451,2.85718 0.92804,0.3234 2.16546,-0.0891 2.81331,-0.82509 0.64786,-0.73601 0.70678,-1.79664 0.54497,-2.87191 -0.16181,-1.07528 -0.54482,-2.16538 -0.86896,-3.19659 -0.32414,-1.03122 -0.5893,-2.00348 -0.70732,-3.55039 -0.11802,-1.54691 -0.0885,-3.66819 -0.0591,-5.52437 0.0295,-1.85617 0.0589,-3.44713 0.38294,-5.05309 0.32401,-1.60596 0.94272,-3.22638 1.4436,-4.37554 0.50088,-1.14916 0.88389,-1.82679 0.81079,-2.45988 -0.0731,-0.6331 -0.60341,-1.22234 -1.10416,-1.62035 -0.50074,-0.39802 -0.97213,-0.60425 -1.79731,-0.60458 -0.82517,-3.4e-4 -2.00366,0.2059 -3.31471,0.36798 -1.31106,0.16208 -2.7547,0.27993 -5.31791,0.16216 -2.56321,-0.11777 -6.24599,-0.47131 -9.3251,-0.27994 -3.07911,0.19136 -5.55393,0.92792 -7.30713,1.59084 -1.75321,0.66292 -2.78439,1.25217 -3.18206,1.85686 -0.39768,0.60469 -0.16198,1.2234 0.56023,1.87131 0.72221,0.64792 1.93016,1.32555 2.76937,1.50192 0.83921,0.17636 1.3106,-0.14771 1.45835,-0.3829 0.14775,-0.23518 -0.029,-0.38249 -0.42675,-0.51542 -0.39772,-0.13292 -1.01642,-0.25077 -1.14966,-0.58957 -0.13324,-0.33881 0.22031,-0.8986 1.67928,-1.29652 1.45896,-0.39792 4.02217,-0.63362 6.54133,-0.70722 2.51916,-0.0736 4.99398,0.0148 7.14481,0.13267 2.15082,0.11788 3.97747,0.26519 4.81655,0.70749 0.83907,0.44229 0.69176,1.17884 0.17613,2.40137 -0.51563,1.22253 -1.39949,2.93133 -2.75475,4.91996 -1.35525,1.98863 -3.1819,4.25722 -4.89057,5.8628 -1.70866,1.60559 -3.29962,2.54838 -4.96423,3.44699 -1.6646,0.89861 -3.40287,1.75301 -5.49449,2.23923 -2.09161,0.48622 -4.53697,0.60406 -6.43721,0.42751 -1.90024,-0.17655 -3.2555,-0.64794 -4.62575,-1.94395 -1.37026,-1.29602 -2.75498,-3.41729 -3.62446,-6.1574 -0.86948,-2.74011 -1.22302,-6.0988 -1.19366,-9.54609 0.0294,-3.44729 0.44183,-6.98275 1.26675,-10.44482 0.82492,-3.46207 2.06233,-6.85022 3.41764,-9.79665 1.35532,-2.94643 2.82843,-5.45071 4.12489,-7.27757 1.29646,-1.82685 2.41601,-2.97587 3.83061,-3.75673 1.4146,-0.78086 3.12341,-1.19333 4.6557,-1.26679 1.53229,-0.0734 2.88755,0.19171 3.93334,0.81088 1.04578,0.61918 1.78234,1.59143 2.00279,2.62242 0.22045,1.03099 -0.0742,2.12109 -0.22139,2.66581 -0.14722,0.54472 -0.14725,0.54473 -0.14725,0.88405 z"
       id="path993"
       inkscape:path-effect="#path-effect995"
       inkscape:original-d="m 248.28287,299.54811 c 0.001,0.67864 0.001,1.35629 0,2.03293 0.44295,0.35456 0.88488,0.70811 1.32582,1.06066 0.59027,-0.0285 1.17951,-0.0579 1.76777,-0.0884 0.47241,-0.52934 0.94381,-1.05966 1.41421,-1.59099 0.001,-1.23646 0.001,-2.47387 0,-3.71231 -0.47041,-1.26592 -0.94181,-2.5328 -1.41421,-3.8007 -0.73558,-1.1186 -1.47214,-2.23817 -2.20971,-3.35875 -1.50163,-0.91237 -3.0042,-1.8257 -4.5078,-2.74004 -1.91412,-0.35256 -3.82917,-0.70611 -5.74525,-1.06066 -2.03197,0.47241 -4.06486,0.94381 -6.09879,1.41421 -1.97305,1.62149 -3.94702,3.24191 -5.92202,4.86136 -1.5311,2.15183 -3.06313,4.30257 -4.5962,6.45235 -1.50163,3.00626 -3.0042,6.01141 -4.5078,9.01561 -0.67666,2.9768 -1.35429,5.95248 -2.03293,8.92722 -0.0579,3.3009 -0.11686,6.60067 -0.17678,9.8995 0.59027,2.12236 1.17951,4.24364 1.76777,6.36396 1.15007,2.417 2.29909,4.8329 3.44714,7.24784 1.38578,1.47417 2.7705,2.94728 4.15425,4.41942 1.88666,1.03222 3.77224,2.0634 5.65686,3.09359 4.06694,-0.0874 8.13273,-0.17577 12.19759,-0.26516 2.77056,-1.47217 5.54,-2.94528 8.30851,-4.41942 1.7688,-2.12036 3.53653,-4.24164 5.3033,-6.36396 0.32509,-0.64719 0.64918,-1.29536 0.97227,-1.94454 0.35456,-0.11686 0.7081,-0.23471 1.06066,-0.35356 0.14831,0.8849 0.29563,1.76877 0.44194,2.65165 -0.14632,1.35632 -0.29363,2.71158 -0.44194,4.06587 0.73758,1.88665 1.47414,3.77223 2.20971,5.65685 0.61973,1.06168 1.23843,2.12232 1.85615,3.18198 1.23846,-0.41148 2.47588,-0.82396 3.71231,-1.23743 0.0599,-1.05969 0.11885,-2.12032 0.17678,-3.18198 -0.38202,-1.08915 -0.76503,-2.17925 -1.14905,-3.27037 -0.26417,-0.97129 -0.52933,-1.94355 -0.79549,-2.91682 0.0305,-2.12036 0.0599,-4.24164 0.0884,-6.36396 0.0305,-1.59002 0.0599,-3.18098 0.0884,-4.77297 0.61973,-1.61949 1.23844,-3.23991 1.85616,-4.86136 0.38402,-0.67666 0.76703,-1.35429 1.14905,-2.03293 -0.52934,-0.58827 -1.05966,-1.17751 -1.59099,-1.76777 -0.47042,-0.20524 -0.94181,-0.41148 -1.41422,-0.61872 -1.17753,0.20725 -2.35602,0.41348 -3.53553,0.61872 -1.44271,0.11885 -2.88635,0.2367 -4.33103,0.35355 -3.68192,-0.35256 -7.3647,-0.7061 -11.04854,-1.06066 -2.47393,0.73759 -4.94875,1.47414 -7.42463,2.20971 -1.03021,0.59027 -2.06139,1.17951 -3.09359,1.76777 0.23671,0.61973 0.47241,1.23844 0.70711,1.85616 1.209,0.67865 2.41695,1.35628 3.62392,2.03293 0.47242,-0.3231 0.94381,-0.64718 1.41422,-0.97227 -0.17579,-0.14632 -0.35256,-0.29363 -0.53033,-0.44195 -0.61774,-0.11685 -1.23644,-0.2347 -1.85616,-0.35355 0.35456,-0.5588 0.70811,-1.11859 1.06066,-1.67938 2.56431,-0.23471 5.12752,-0.4704 7.68979,-0.70711 2.47592,0.0894 4.95074,0.17778 7.42462,0.26517 1.82773,0.14832 3.65438,0.29563 5.48007,0.44194 -0.14631,0.73759 -0.29362,1.47414 -0.44194,2.20971 -0.8829,1.70988 -1.76676,3.41868 -2.65165,5.12652 -1.82573,2.26968 -3.65238,4.53827 -5.48007,6.80591 -1.59003,0.94383 -3.18099,1.88662 -4.77298,2.82842 -1.73733,0.85544 -3.4756,1.70985 -5.21491,2.56327 -2.44446,0.11885 -4.88982,0.2367 -7.33623,0.35355 -1.35432,-0.47041 -2.70958,-0.94181 -4.06586,-1.41421 -1.38378,-2.12037 -2.76851,-4.24164 -4.15426,-6.36396 -0.35256,-3.35783 -0.7061,-6.71652 -1.06066,-10.07628 0.41349,-3.5346 0.82596,-7.07006 1.23744,-10.6066 1.23846,-3.38729 2.47587,-6.77544 3.71231,-10.16466 1.47417,-2.50338 2.94728,-5.00767 4.41942,-7.51301 1.12061,-1.14807 2.24017,-2.29709 3.35875,-3.44714 1.70988,-0.41149 3.41869,-0.82396 5.12653,-1.23744 1.35631,0.26617 2.71157,0.53133 4.06586,0.7955 0.73759,0.97329 1.47414,1.94554 2.20971,2.91681 -0.29363,1.09115 -0.58825,2.18125 -0.88388,3.27037 z" />
    <path
       style="fill:#800000"
       d="m 277.35529,332.06123 c 0.0366,-0.41266 0.1545,-0.97245 0.61921,-1.16421 0.4647,-0.19176 1.27491,-0.015 2.49024,0.17647 1.21533,0.19145 2.83576,0.39768 4.27175,0.22073 1.436,-0.17696 2.68814,-0.73673 3.74857,-1.46584 1.06044,-0.7291 1.92957,-1.6277 2.5482,-2.55552 0.61862,-0.92783 0.9869,-1.88536 0.83267,-2.93097 -0.15423,-1.04562 -0.83186,-2.17991 -1.83336,-3.07147 -1.0015,-0.89155 -2.3273,-1.53972 -3.82995,-1.9966 -1.50266,-0.45688 -3.182,-0.72204 -4.91319,-0.597 -1.73119,0.12504 -3.51366,0.64063 -5.07548,1.45092 -1.56181,0.81029 -2.90234,1.91512 -3.94106,3.14542 -1.03872,1.23031 -1.77527,2.58556 -2.33506,4.02207 -0.55979,1.4365 -0.9428,2.9538 -1.14896,4.46392 -0.20617,1.51012 -0.23563,3.0127 -0.0882,4.49331 0.14745,1.48061 0.47154,2.93898 1.08318,4.27953 0.61165,1.34055 1.51025,2.56324 2.71105,3.61633 1.2008,1.05308 2.70337,1.93695 4.34592,2.53333 1.64255,0.59637 3.42501,0.90573 5.24422,0.95714 1.81922,0.0514 3.67534,-0.15483 5.32491,-0.79567 1.64957,-0.64084 3.09322,-1.71621 4.36738,-2.88727 1.27416,-1.17106 2.37899,-2.43794 3.15973,-3.38806 0.78073,-0.95013 1.2374,-1.58357 1.48052,-2.58492 0.24313,-1.00134 0.27259,-2.37133 0.074,-3.44663 -0.19854,-1.07529 -0.62574,-1.85604 -0.93492,-2.24702 -0.30919,-0.39098 -0.50069,-0.39098 -0.50088,-0.20623 -1.9e-4,0.18475 0.19131,0.55302 0.0289,1.17867 -0.16245,0.62565 -0.67804,1.50952 -1.42196,2.6438 -0.74393,1.13427 -1.71618,2.51899 -2.81359,3.77842 -1.09741,1.25942 -2.3201,2.39372 -3.60139,3.10813 -1.28129,0.71441 -2.62182,1.00904 -3.78539,1.03872 -1.16358,0.0297 -2.15056,-0.20602 -3.15232,-0.66981 -1.00175,-0.4638 -2.0182,-1.15616 -2.82126,-1.95148 -0.80306,-0.79531 -1.39231,-1.69391 -1.69467,-2.72519 -0.30237,-1.03128 -0.3171,-2.19504 -0.2656,-3.3368 0.0515,-1.14176 0.16936,-2.26132 0.33873,-3.21897 0.16937,-0.95766 0.39033,-1.75314 0.64813,-2.5487 0.25779,-0.79556 0.55241,-1.59104 1.21544,-2.49731 0.66302,-0.90627 1.69421,-1.92272 2.67392,-2.79193 0.97971,-0.86921 1.90777,-1.59103 2.83625,-1.98139 0.92849,-0.39036 1.85654,-0.44928 2.67427,-0.29426 0.81773,0.15503 1.52483,0.52331 2.018,1.02447 0.49317,0.50117 0.77307,1.13461 0.7948,1.78247 0.0217,0.64787 -0.21397,1.31077 -0.77352,1.89966 -0.55955,0.58888 -1.44341,1.10447 -2.31237,1.46539 -0.86895,0.36093 -1.72336,0.56717 -2.66603,0.66301 -0.94268,0.0958 -1.97385,0.0811 -2.81347,0.008 -0.83962,-0.0736 -1.48779,-0.20612 -1.99635,-0.19898 -0.50856,0.007 -0.87683,0.15446 -1.17182,0.56735 -0.29499,0.4129 -0.51596,1.09053 -0.58944,1.70214 -0.0735,0.61161 1.7e-4,1.15665 0.1922,1.52475 0.19202,0.36809 0.50137,0.55959 0.63346,0.52297 0.1321,-0.0366 0.0879,-0.30179 0.12456,-0.71446 z"
       id="path997"
       inkscape:path-effect="#path-effect999"
       inkscape:original-d="m 277.27425,332.2076 c 0.11885,-0.55879 0.2367,-1.11858 0.35355,-1.67937 0.81124,0.17778 1.62145,0.35455 2.43068,0.53033 1.62148,0.20724 3.24191,0.41347 4.86136,0.61871 1.25319,-0.5588 2.50533,-1.11858 3.7565,-1.67937 0.87017,-0.89764 1.73931,-1.79623 2.60746,-2.69585 0.36929,-0.95656 0.73757,-1.91408 1.10485,-2.87262 -0.67665,-1.13334 -1.35428,-2.26763 -2.03293,-3.40295 -1.32485,-0.6472 -2.65065,-1.29536 -3.97747,-1.94455 -1.67842,-0.26417 -3.35776,-0.52933 -5.03814,-0.79549 -1.78153,0.51661 -3.564,1.0322 -5.34749,1.5468 -1.33959,1.10587 -2.68012,2.2107 -4.02167,3.31456 -0.73559,1.35631 -1.47214,2.71157 -2.20971,4.06586 -0.38203,1.51837 -0.76504,3.03567 -1.14905,4.552 -0.0285,1.50363 -0.0579,3.00621 -0.0884,4.50781 0.3251,1.45943 0.64918,2.91781 0.97227,4.37522 0.89963,1.22373 1.79823,2.44641 2.69585,3.66812 1.50363,0.8849 3.0062,1.76876 4.5078,2.65165 1.78354,0.31036 3.566,0.61972 5.3475,0.92808 1.85719,-0.20525 3.71331,-0.41148 5.56846,-0.61872 1.44471,-1.07442 2.88836,-2.14979 4.33103,-3.22618 1.10588,-1.26592 2.21071,-2.5328 3.31456,-3.8007 0.45769,-0.63246 0.91435,-1.2659 1.37002,-1.90035 0.0305,-1.36904 0.0599,-2.73903 0.0884,-4.11005 -0.42622,-0.77978 -0.85342,-1.56053 -1.28163,-2.3423 -0.19051,0.001 -0.38201,0.001 -0.57452,0 0.19251,0.3693 0.38401,0.73757 0.57452,1.10486 -0.51461,0.8849 -1.0302,1.76877 -1.54679,2.65165 -0.9713,1.38578 -1.94355,2.7705 -2.91682,4.15425 -1.22173,1.13534 -2.44441,2.26964 -3.66812,3.40295 -1.33958,0.29564 -2.68011,0.59026 -4.02167,0.88389 -0.98602,-0.23471 -1.973,-0.47041 -2.96101,-0.70711 -1.01548,-0.69139 -2.03193,-1.38375 -3.04939,-2.07713 -0.58827,-0.89763 -1.17752,-1.79623 -1.76777,-2.69584 -0.0137,-1.1628 -0.0285,-2.32656 -0.0442,-3.49134 0.11886,-1.11861 0.23671,-2.23817 0.35356,-3.35876 0.22197,-0.79451 0.44294,-1.58999 0.66291,-2.38648 0.29563,-0.79451 0.59026,-1.58999 0.88388,-2.38649 1.03222,-1.01548 2.0634,-2.03193 3.0936,-3.0494 0.92909,-0.72085 1.85715,-1.44267 2.78423,-2.16551 0.9291,-0.0579 1.85715,-0.11685 2.78423,-0.17678 0.70812,0.36929 1.41522,0.73757 2.12132,1.10486 0.2809,0.63446 0.5608,1.2679 0.83969,1.90035 -0.2347,0.66392 -0.4704,1.32682 -0.7071,1.98873 -0.88291,0.51661 -1.76677,1.0322 -2.65166,1.5468 -0.85343,0.20724 -1.70784,0.41348 -2.56326,0.61872 -1.03022,-0.0137 -2.06139,-0.0285 -3.09359,-0.0442 -0.64719,-0.13158 -1.29536,-0.26416 -1.94454,-0.39774 -0.3673,0.14831 -0.73557,0.29562 -1.10486,0.44194 -0.21997,0.67866 -0.44094,1.35629 -0.66291,2.03293 0.0747,0.54607 0.14831,1.09112 0.22097,1.63518 0.31037,0.19252 0.61972,0.38402 0.92808,0.57453 -0.0432,-0.26417 -0.0874,-0.52933 -0.13258,-0.7955 z" />
    <path
       style="fill:#800000"
       d="m 303.98975,342.85529 c 0.17706,1.18749 0.34373,2.47915 0.26026,3.34326 -0.0835,0.86411 -0.41679,1.3016 -1.05163,1.48906 -0.63484,0.18746 -1.57232,0.12496 -2.35365,-0.27038 -0.78132,-0.39534 -1.40631,-1.12449 -1.97944,-2.11402 -0.57313,-0.98953 -1.09395,-2.2395 -1.37544,-3.43752 -0.28148,-1.19802 -0.32315,-2.34382 -0.4377,-3.94799 -0.11456,-1.60416 -0.30205,-3.66662 -0.43749,-5.47915 -0.13544,-1.81253 -0.21877,-3.375 -0.34373,-4.85415 -0.12497,-1.47916 -0.29163,-2.87497 -0.13555,-4.219 0.15609,-1.34404 0.63525,-2.63568 1.23964,-3.52146 0.6044,-0.88577 1.33355,-1.36493 2.1673,-1.58358 0.83374,-0.21865 1.77122,-0.17698 2.5317,0.0421 0.76047,0.21912 1.3438,0.61495 1.68709,1.08389 0.34328,0.46894 0.44744,1.01059 0.49942,1.51052 0.052,0.49993 0.052,0.95826 0.052,1.38534 0,0.42709 0,0.82292 0.11453,0.87457 0.11454,0.0516 0.3437,-0.24002 0.59365,-0.78146 0.24996,-0.54145 0.52078,-1.3331 0.98968,-2.02094 0.46889,-0.68783 1.13554,-1.27115 1.85445,-1.77122 0.7189,-0.50007 1.48971,-0.91673 2.40666,-1.17709 0.91694,-0.26037 1.97942,-0.36453 3.01083,-0.14541 1.03141,0.21912 2.03139,0.76078 2.8125,1.37559 0.7811,0.61481 1.34359,1.3023 1.74951,2.29192 0.40592,0.98963 0.65591,2.28127 0.73911,3.73952 0.0832,1.45824 -1.4e-4,3.08322 -0.10432,4.59362 -0.10418,1.51041 -0.22918,2.90622 -0.45837,4.78121 -0.22919,1.87499 -0.56252,4.22911 -0.54136,5.84389 0.0212,1.61478 0.39615,2.48976 0.91727,2.95795 0.52112,0.4682 1.18777,0.5307 1.82258,0.1245 0.63482,-0.40621 1.23897,-1.28119 1.82228,-2.42688 0.58331,-1.1457 1.14579,-2.56233 1.77081,-3.90618 0.62501,-1.34384 1.3125,-2.61465 1.92708,-3.81255 0.61458,-1.19789 1.15624,-2.32287 1.31288,-3.12457 0.15663,-0.8017 -0.0725,-1.28085 -0.0619,-1.52103 0.0106,-0.24019 0.26063,-0.24019 0.60434,0.0208 0.3437,0.26096 0.7812,0.78179 1.19772,1.42769 0.41653,0.6459 0.81235,1.41672 0.92654,1.93709 0.11419,0.52038 -0.0525,0.79121 -0.31252,0.98888 -0.26004,0.19768 -0.6142,0.32268 -0.90625,0.88565 -0.29204,0.56298 -0.5212,1.56296 -0.90664,2.77121 -0.38544,1.20825 -0.9271,2.62489 -1.50002,3.93733 -0.57292,1.31245 -1.17707,2.52076 -1.89568,3.46844 -0.7186,0.94768 -1.55192,1.63517 -2.37457,2.09345 -0.82264,0.45828 -1.63512,0.68745 -2.66621,0.78131 -1.03108,0.0939 -2.28105,0.0522 -3.32264,-0.1767 -1.04159,-0.22889 -1.87491,-0.64554 -2.68761,-1.41612 -0.81271,-0.77057 -1.60436,-1.89555 -2.06303,-2.99975 -0.45868,-1.1042 -0.58367,-2.18751 -0.60459,-3.58343 -0.0209,-1.39593 0.0624,-3.10423 0.18739,-4.83344 0.12499,-1.72921 0.29165,-3.47917 0.44789,-5.00003 0.15625,-1.52085 0.30208,-2.81249 0.37504,-3.83328 0.073,-1.02078 0.073,-1.77076 0.0314,-2.39569 -0.0416,-0.62494 -0.12491,-1.12494 -0.52032,-1.39631 -0.39541,-0.27137 -1.10372,-0.31303 -1.5731,-0.0211 -0.46938,0.29192 -0.69855,0.91691 -1.20894,1.80216 -0.5104,0.88526 -1.30205,2.03107 -1.9375,3.31252 -0.63545,1.28146 -1.1146,2.69809 -1.52083,4.35447 -0.40622,1.65637 -0.73955,3.55217 -0.94784,5.12516 -0.2083,1.57299 -0.29163,2.82297 -0.23941,3.98975 0.0522,1.16678 0.23971,2.2501 0.41676,3.43758 z"
       id="path1001"
       inkscape:path-effect="#path-effect1003"
       inkscape:original-d="m 304,342.75 c 0.16767,1.29267 0.33433,2.58433 0.5,3.875 -0.33234,0.43851 -0.66567,0.876 -1,1.3125 -0.93652,-0.0615 -1.874,-0.124 -2.8125,-0.1875 -0.62401,-0.72818 -1.249,-1.45733 -1.875,-2.1875 -0.51984,-1.24903 -1.04067,-2.499 -1.5625,-3.75 -0.0407,-1.14486 -0.0823,-2.29067 -0.125,-3.4375 -0.1865,-2.06154 -0.374,-4.124 -0.5625,-6.1875 -0.0823,-1.56153 -0.16567,-3.124 -0.25,-4.6875 -0.16567,-1.39486 -0.33233,-2.79067 -0.5,-4.1875 0.48018,-1.29069 0.95933,-2.58233 1.4375,-3.875 0.73018,-0.47818 1.45933,-0.95733 2.1875,-1.4375 0.93852,0.0427 1.876,0.0843 2.8125,0.125 0.58434,0.39684 1.16767,0.79267 1.75,1.1875 0.10517,0.54268 0.20933,1.08433 0.3125,1.625 10e-4,0.45934 10e-4,0.91767 0,1.375 10e-4,0.39684 10e-4,0.79267 0,1.1875 0.23017,-0.29067 0.45933,-0.58233 0.6875,-0.875 0.27184,-0.79068 0.54267,-1.58233 0.8125,-2.375 0.66768,-0.58235 1.33433,-1.16567 2,-1.75 0.77185,-0.41568 1.54267,-0.83233 2.3125,-1.25 1.06352,-0.10317 2.126,-0.20733 3.1875,-0.3125 1.00102,0.54268 2.001,1.08433 3,1.625 0.56351,0.68851 1.126,1.376 1.6875,2.0625 0.251,1.29269 0.501,2.58433 0.75,3.875 -0.0823,1.62603 -0.16567,3.251 -0.25,4.875 -0.124,1.39686 -0.249,2.79267 -0.375,4.1875 -0.33234,2.35521 -0.66567,4.70933 -1,7.0625 0.37601,0.87602 0.751,1.751 1.125,2.625 0.66768,0.0635 1.33433,0.126 2,0.1875 0.60518,-0.87402 1.20933,-1.749 1.8125,-2.625 0.56351,-1.4157 1.126,-2.83233 1.6875,-4.25 0.68851,-1.26986 1.376,-2.54067 2.0625,-3.8125 0.54268,-1.12402 1.08433,-2.249 1.625,-3.375 -0.22817,-0.47818 -0.45733,-0.95733 -0.6875,-1.4375 0.251,10e-4 0.501,10e-4 0.75,0 0.43851,0.52184 0.876,1.04267 1.3125,1.5625 0.39684,0.77185 0.79267,1.54267 1.1875,2.3125 -0.16567,0.27184 -0.33233,0.54267 -0.5,0.8125 -0.35317,0.126 -0.70733,0.251 -1.0625,0.375 -0.22817,1.00102 -0.45733,2.001 -0.6875,3 -0.54068,1.41769 -1.08233,2.83433 -1.625,4.25 -0.60318,1.20936 -1.20733,2.41767 -1.8125,3.625 -0.83235,0.68851 -1.66567,1.376 -2.5,2.0625 -0.81152,0.23017 -1.624,0.45933 -2.4375,0.6875 -1.24903,-0.0407 -2.499,-0.0823 -3.75,-0.125 -0.83235,-0.41568 -1.66567,-0.83233 -2.5,-1.25 -0.79068,-1.12402 -1.58233,-2.249 -2.375,-3.375 -0.124,-1.08236 -0.249,-2.16567 -0.375,-3.25 0.0843,-1.70737 0.16767,-3.41567 0.25,-5.125 0.16767,-1.74904 0.33433,-3.499 0.5,-5.25 0.14684,-1.29069 0.29267,-2.58233 0.4375,-3.875 10e-4,-0.74902 10e-4,-1.499 0,-2.25 -0.0823,-0.49901 -0.16567,-0.999 -0.25,-1.5 -0.70735,-0.0407 -1.41567,-0.0823 -2.125,-0.125 -0.22817,0.62601 -0.45733,1.251 -0.6875,1.875 -0.79068,1.14686 -1.58233,2.29267 -2.375,3.4375 -0.47818,1.41769 -0.95733,2.83433 -1.4375,4.25 -0.33234,1.89687 -0.66567,3.79267 -1,5.6875 -0.0823,1.25102 -0.16567,2.501 -0.25,3.75 0.1885,1.08435 0.376,2.16767 0.5625,3.25 z" />
    <path
       style="fill:#800000"
       d="m 332.40645,337.87486 c -0.44798,0.33337 -1.11465,0.8542 -1.80231,1.67731 -0.68765,0.82312 -1.39597,1.9481 -1.79178,2.84423 -0.3958,0.89614 -0.47913,1.56279 -0.31183,2.03149 0.1673,0.4687 0.58396,0.73953 1.16695,0.7078 0.58299,-0.0317 1.33299,-0.36506 2.0828,-0.85458 0.74981,-0.48952 1.4998,-1.13535 2.06217,-1.7914 0.56237,-0.65606 0.93736,-1.32271 1.09374,-2.12444 0.15638,-0.80173 0.0939,-1.73921 -0.11408,-2.44752 -0.20795,-0.7083 -0.56211,-1.18745 -1.21832,-1.96875 -0.65621,-0.7813 -1.61452,-1.86461 -2.37508,-2.91664 -0.76056,-1.05202 -1.32306,-2.07284 -1.8231,-3.04159 -0.50005,-0.96876 -0.93753,-1.8854 -1.34379,-2.73957 -0.40626,-0.85418 -0.78125,-1.64583 -0.89617,-2.68767 -0.11491,-1.04184 0.0309,-2.33348 0.39551,-3.33388 0.3646,-1.00039 0.94792,-1.70872 1.75035,-2.24012 0.80242,-0.5314 1.82324,-0.88557 2.97972,-1.05212 1.15648,-0.16656 2.44812,-0.14573 3.55236,0.17758 1.10424,0.3233 2.02089,0.94829 2.78107,1.81309 0.76017,0.8648 1.36432,1.96894 1.64522,2.93758 0.28091,0.96864 0.23924,1.80196 -0.0105,2.30138 -0.2497,0.49942 -0.70803,0.66609 -1.22854,0.63518 -0.52052,-0.0309 -1.10384,-0.26008 -1.54171,-0.74931 -0.43787,-0.48922 -0.72953,-1.2392 -1.0107,-1.86422 -0.28116,-0.62501 -0.55199,-1.125 -0.89549,-1.51064 -0.3435,-0.38564 -0.76015,-0.65646 -1.16664,-0.74026 -0.40649,-0.0838 -0.80232,0.0204 -1.03188,0.33339 -0.22956,0.31303 -0.29206,0.83386 -0.15637,1.55278 0.13569,0.71892 0.46901,1.63558 1.1255,2.69803 0.65648,1.06246 1.63563,2.27077 2.39615,3.10402 0.76051,0.83324 1.30217,1.29157 1.85364,1.07249 0.55146,-0.21908 1.11395,-1.1149 2.35388,-1.96931 1.23993,-0.85441 3.15656,-1.6669 4.69826,-2.30232 1.5417,-0.63542 2.70834,-1.09374 3.71908,-1.22893 1.01074,-0.13518 1.86489,0.0523 2.23926,0.57346 0.37437,0.52115 0.2702,1.37529 0.01,1.91644 -0.26019,0.54114 -0.67684,0.7703 -1.04106,0.76042 -0.36421,-0.01 -0.6767,-0.25988 -1.26037,-0.1875 -0.58367,0.0724 -1.43782,0.4682 -2.87535,1.15571 -1.43753,0.68751 -3.45833,1.66666 -4.72912,2.26041 -1.27078,0.59375 -1.79161,0.80208 -2.26064,1.12512 -0.46902,0.32304 -0.88568,0.76052 -0.56214,1.23998 0.32354,0.47945 1.38602,1.00028 2.04175,2.17764 0.65573,1.17736 0.90572,3.01067 0.70762,4.58324 -0.1981,1.57258 -0.84392,2.88505 -1.58347,4.09327 -0.73955,1.20822 -1.57286,2.31236 -2.65591,3.14552 -1.08304,0.83315 -2.41635,1.39564 -4.06192,1.62494 -1.64557,0.2293 -3.60387,0.12513 -4.88518,-0.2702 -1.28132,-0.39534 -1.88547,-1.08283 -2.20883,-1.9891 -0.32337,-0.90628 -0.36503,-2.03125 -0.26097,-3.16683 0.10407,-1.13557 0.35407,-2.28138 0.99994,-3.52128 0.64587,-1.23991 1.68752,-2.57321 2.53152,-3.40672 0.844,-0.8335 1.48982,-1.16683 1.75043,-1.42657 0.26061,-0.25974 0.13561,-0.44724 0.27123,-0.41619 0.13561,0.031 0.53145,0.28104 1.01048,0.74997 0.47903,0.46893 1.04152,1.15642 1.35367,1.6877 0.31215,0.53127 0.37465,0.90627 0.23965,0.93743 -0.135,0.0312 -0.46833,-0.28133 -0.74997,-0.36523 -0.28163,-0.0839 -0.51079,0.0619 -0.95877,0.39529 z"
       id="path1005"
       inkscape:path-effect="#path-effect1007"
       inkscape:original-d="m 332.625,337.6875 c -0.66567,0.52183 -1.33233,1.04267 -2,1.5625 -0.70735,1.12602 -1.41567,2.251 -2.125,3.375 -0.0823,0.66768 -0.16567,1.33433 -0.25,2 0.41767,0.27184 0.83433,0.54267 1.25,0.8125 0.75101,-0.33234 1.501,-0.66567 2.25,-1 0.75101,-0.64485 1.501,-1.29067 2.25,-1.9375 0.37601,-0.66568 0.751,-1.33233 1.125,-2 -0.0615,-0.93652 -0.124,-1.874 -0.1875,-2.8125 -0.35317,-0.47818 -0.70733,-0.95733 -1.0625,-1.4375 -0.95735,-1.08236 -1.91567,-2.16567 -2.875,-3.25 -0.56151,-1.01985 -1.124,-2.04067 -1.6875,-3.0625 -0.43651,-0.91569 -0.874,-1.83233 -1.3125,-2.75 -0.37401,-0.79068 -0.749,-1.58233 -1.125,-2.375 0.14684,-1.29069 0.29267,-2.58233 0.4375,-3.875 0.58434,-0.70735 1.16767,-1.41567 1.75,-2.125 1.02185,-0.35317 2.04267,-0.70733 3.0625,-1.0625 1.29269,0.0218 2.58433,0.0427 3.875,0.0625 0.91768,0.62601 1.83433,1.251 2.75,1.875 0.60518,1.10519 1.20933,2.20933 1.8125,3.3125 -0.0407,0.83435 -0.0823,1.66767 -0.125,2.5 -0.45734,0.16767 -0.91567,0.33433 -1.375,0.5 -0.58235,-0.22817 -1.16567,-0.45733 -1.75,-0.6875 -0.29067,-0.74902 -0.58233,-1.499 -0.875,-2.25 -0.26984,-0.49901 -0.54067,-0.999 -0.8125,-1.5 -0.41568,-0.26984 -0.83233,-0.54067 -1.25,-0.8125 -0.39484,0.10517 -0.79067,0.20933 -1.1875,0.3125 -0.0615,0.52184 -0.124,1.04267 -0.1875,1.5625 0.33434,0.91768 0.66767,1.83433 1,2.75 0.98019,1.20936 1.95933,2.41767 2.9375,3.625 0.54268,0.45934 1.08433,0.91767 1.625,1.375 0.56351,-0.89485 1.126,-1.79067 1.6875,-2.6875 1.9177,-0.81152 3.83433,-1.624 5.75,-2.4375 1.16769,-0.45734 2.33433,-0.91567 3.5,-1.375 0.85518,0.1885 1.70933,0.376 2.5625,0.5625 -0.10317,0.85518 -0.20733,1.70933 -0.3125,2.5625 -0.41568,0.23017 -0.83233,0.45933 -1.25,0.6875 -0.31151,-0.24901 -0.624,-0.499 -0.9375,-0.75 -0.85318,0.39684 -1.70733,0.79267 -2.5625,1.1875 -2.01987,0.98019 -4.04067,1.95933 -6.0625,2.9375 -0.51984,0.20934 -1.04067,0.41767 -1.5625,0.625 -0.41568,0.43851 -0.83233,0.876 -1.25,1.3125 1.06352,0.52184 2.126,1.04267 3.1875,1.5625 0.251,1.83437 0.501,3.66767 0.75,5.5 -0.64485,1.31353 -1.29067,2.626 -1.9375,3.9375 -0.83235,1.10519 -1.66567,2.20933 -2.5,3.3125 -1.33236,0.56351 -2.66567,1.126 -4,1.6875 -1.95737,-0.10317 -3.91567,-0.20733 -5.875,-0.3125 -0.60318,-0.68651 -1.20733,-1.374 -1.8125,-2.0625 -0.0407,-1.12402 -0.0823,-2.249 -0.125,-3.375 0.251,-1.14486 0.501,-2.29067 0.75,-3.4375 1.04269,-1.33236 2.08433,-2.66567 3.125,-4 0.64685,-0.33234 1.29267,-0.66567 1.9375,-1 -0.124,-0.1865 -0.249,-0.374 -0.375,-0.5625 0.39684,0.251 0.79267,0.501 1.1875,0.75 0.56351,0.68851 1.126,1.376 1.6875,2.0625 0.0635,0.37601 0.126,0.751 0.1875,1.125 -0.33234,-0.31151 -0.66567,-0.624 -1,-0.9375 -0.22817,0.14684 -0.45733,0.29267 -0.6875,0.4375 z" />
    <path
       style="fill:#333333;stroke-width:0.791426"
       d="m 376.38765,383.73649 c 0.9449,-0.256 2.885,-0.29859 3.85463,-0.29823 0.96963,3.6e-4 0.96963,0.043 0.96963,0.39441 0,0.35144 0,1.01169 0.0383,4.12139 0.0383,3.1097 0.11488,8.66859 0.0638,11.54355 -0.051,2.87496 -0.22973,3.06664 -0.57425,3.33282 -0.34452,0.26617 -0.85506,0.60694 -1.26321,0.77742 -0.40814,0.17048 -0.71447,0.17048 -1.35268,0.18112 -0.63822,0.0106 -1.60825,0.0319 -2.09369,0.0216 -0.48545,-0.0103 -0.48545,-0.0529 -0.45993,-2.71529 0.0255,-2.66241 0.0766,-7.94442 0.0766,-11.07534 3e-5,-3.13092 -0.051,-4.11064 -0.10206,-4.83478 -0.051,-0.72415 -0.10209,-1.19272 0.84282,-1.44872 z"
       id="path1009"
       inkscape:path-effect="#path-effect1011"
       inkscape:original-d="m 375.3916,383.52311 c 1.94097,-0.0419 3.88107,-0.0845 5.82031,-0.12779 8.7e-4,0.0433 8.7e-4,0.0859 0,0.12779 8.7e-4,0.661 8.7e-4,1.32125 0,1.9808 0.0775,5.55984 0.15404,11.11873 0.22976,16.67701 -0.17784,0.19241 -0.35653,0.3841 -0.53609,0.57507 -0.5097,0.34151 -1.02024,0.68229 -1.53166,1.02234 -0.30547,7.3e-4 -0.6118,7.3e-4 -0.919,0 -0.96921,0.022 -1.93924,0.0433 -2.91015,0.0639 8.6e-4,-0.0419 8.6e-4,-0.0845 0,-0.1278 0.0519,-5.2815 0.10297,-10.56351 0.15316,-15.84636 -0.0502,-0.97904 -0.10125,-1.95876 -0.15316,-2.93924 -0.0502,-0.46785 -0.10126,-0.93642 -0.15317,-1.40572 z" />
    <path
       style="fill:#333333;stroke-width:0.791426"
       d="m 384.12844,384.008 c 0.006,-0.12214 0.0191,-0.36707 0.0767,-0.52192 0.0576,-0.15485 0.15972,-0.21874 0.47273,-0.23993 0.31302,-0.0212 0.83633,1.2e-4 1.35964,0.0107 0.52331,0.0106 1.04661,0.0106 1.53803,0.016 0.49142,0.005 0.95092,0.016 1.30195,0.0319 0.35102,0.016 0.59352,0.0373 0.77856,0.10686 0.18503,0.0696 0.31267,0.18671 0.36329,0.44758 0.0506,0.26087 0.0251,0.66553 0.0251,1.02235 5e-5,0.35683 0.0256,0.66565 0.13424,0.77165 0.10867,0.106 0.30012,0.0102 0.58075,-0.23471 0.28063,-0.24486 0.65078,-0.63888 1.09768,-0.97442 0.44691,-0.33553 0.97022,-0.61241 1.51281,-0.83072 0.54258,-0.2183 1.10419,-0.37804 1.8127,-0.4738 0.70851,-0.0958 1.56368,-0.1277 2.45718,-0.13833 0.89349,-0.0106 1.82523,1e-5 2.73791,0.20255 0.91269,0.20255 1.80615,0.59657 2.6421,1.15584 0.83596,0.55927 1.61454,1.28341 2.03537,1.95968 0.42084,0.67626 0.48465,1.30456 0.50375,2.08193 0.0191,0.77737 -0.006,1.70386 -0.0448,2.6836 -0.0383,0.97975 -0.0893,2.01273 -0.12125,3.40783 -0.0319,1.39511 -0.0447,3.15223 -0.0383,4.60058 0.006,1.44835 0.0319,2.58782 0.0511,3.23213 0.0192,0.64432 0.0319,0.79341 -0.0188,0.87814 -0.0507,0.0847 -0.1656,0.10604 -0.6378,0.11675 -0.47219,0.0107 -1.30182,0.0107 -2.08681,0.0107 -0.78498,0 -1.52527,0 -1.97844,0.0106 -0.45317,0.0106 -0.61909,0.0319 -0.68969,-0.16473 -0.0706,-0.19664 -0.0451,-0.61195 -0.0514,-1.49583 -0.006,-0.88388 -0.0446,-2.23633 -0.0574,-3.63676 -0.0128,-1.40043 -1e-5,-2.84873 0.0191,-4.07343 0.0191,-1.2247 0.0447,-2.22572 0.0638,-2.95521 0.0191,-0.72949 0.0319,-1.18741 -0.0891,-1.66121 -0.12101,-0.47379 -0.37629,-0.96366 -0.82915,-1.32071 -0.45287,-0.35704 -1.10381,-0.58068 -1.93352,-0.71395 -0.82971,-0.13327 -1.83803,-0.17587 -2.67423,-0.0908 -0.8362,0.0851 -1.49991,0.29808 -2.06184,0.73484 -0.56193,0.43677 -1.02142,1.09702 -1.27031,1.65108 -0.2489,0.55405 -0.28719,1.00132 -0.3127,1.56578 -0.0255,0.56445 -0.0383,1.246 -0.0447,2.05006 -0.006,0.80405 -0.006,1.73053 -0.0255,2.60377 -0.0192,0.87324 -0.0575,1.69323 -0.0894,2.48662 -0.0319,0.7934 -0.0574,1.56014 -0.0638,2.28966 -0.006,0.72952 0.006,1.42172 0.0128,1.86366 0.006,0.44195 0.006,0.63364 -0.0763,0.75034 -0.0827,0.1167 -0.24857,0.15929 -0.68244,0.18068 -0.43387,0.0214 -1.13586,0.0214 -1.83786,0.005 -0.70201,-0.0159 -1.40401,-0.0479 -1.93374,-0.0586 -0.52973,-0.0107 -0.88711,-5e-5 -1.11682,10e-6 -0.22971,6e-5 -0.33182,-0.0106 -0.40867,-0.074 -0.0768,-0.0635 -0.1279,-0.18062 -0.12812,-0.61738 -2.2e-4,-0.43676 0.0508,-1.19286 0.0572,-2.38025 0.006,-1.18738 -0.0319,-2.80607 -0.0574,-4.43013 -0.0255,-1.62406 -0.0383,-3.25339 -0.0383,-4.54199 0,-1.2886 0.0128,-2.23638 2e-5,-3.31197 -0.0127,-1.07558 -0.051,-2.27894 -0.0955,-2.94445 -0.0445,-0.6655 -0.0956,-0.7933 -0.12127,-0.85766 -0.0257,-0.0643 -0.0258,-0.0644 -0.0194,-0.1865 z"
       id="path1067"
       inkscape:path-effect="#path-effect1069"
       inkscape:original-d="m 384.12207,384.13013 c 0.0136,-0.24422 0.0264,-0.48915 0.0383,-0.73481 0.10299,-0.0632 0.2051,-0.12707 0.30634,-0.19169 0.52419,0.022 1.0475,0.0433 1.56995,0.0639 0.5242,7.2e-4 1.0475,7.2e-4 1.56996,0 0.46037,0.0113 0.91986,0.022 1.37849,0.0319 0.24339,0.022 0.48589,0.0433 0.72754,0.0639 0.12851,0.11787 0.25615,0.23501 0.38292,0.35143 -0.0247,0.40542 -0.0502,0.81008 -0.0766,1.21404 0.0264,0.30956 0.0519,0.61839 0.0766,0.9265 0.19233,-0.0951 0.38378,-0.19096 0.57437,-0.28754 0.37102,-0.39331 0.74117,-0.78733 1.11045,-1.18208 0.5242,-0.27617 1.04751,-0.55305 1.56996,-0.83066 0.56249,-0.15902 1.12409,-0.31876 1.68483,-0.47922 0.85606,-0.0312 1.71123,-0.0632 2.56554,-0.0958 0.93264,0.0113 1.86438,0.022 2.79528,0.0319 0.89435,0.39476 1.78781,0.78878 2.68041,1.18208 0.77948,0.7249 1.55806,1.44905 2.33579,2.17249 0.0647,0.62905 0.1285,1.25735 0.19145,1.88495 -0.0247,0.92724 -0.0502,1.85373 -0.0766,2.7795 -0.0502,1.03374 -0.10124,2.06672 -0.15316,3.09899 -0.0119,1.75791 -0.0247,3.51503 -0.0383,5.27147 0.0264,1.14023 0.0519,2.2797 0.0766,3.41847 0.0136,0.14981 0.0264,0.2989 0.0383,0.44727 -0.114,0.022 -0.22888,0.0433 -0.34462,0.0639 -0.8288,7.2e-4 -1.65843,7.2e-4 -2.48895,0 -0.73945,7.2e-4 -1.47974,7.2e-4 -2.22091,0 -0.16507,0.022 -0.33099,0.0433 -0.49779,0.0639 0.0264,-0.41461 0.0519,-0.82993 0.0766,-1.24598 -0.0374,-1.35178 -0.0757,-2.70423 -0.11487,-4.05743 0.0136,-1.44763 0.0264,-2.89593 0.0383,-4.34497 0.0264,-1.00035 0.0519,-2.00137 0.0766,-3.00314 0.0136,-0.45721 0.0264,-0.91513 0.0383,-1.37378 -0.25442,-0.48916 -0.50969,-0.97903 -0.76583,-1.46962 -0.65011,-0.22292 -1.30105,-0.44655 -1.95287,-0.67092 -1.0075,-0.0419 -2.01582,-0.0845 -3.02503,-0.12779 -0.66287,0.21372 -1.32658,0.4267 -1.99117,0.63897 -0.45864,0.661 -0.91813,1.32125 -1.37849,1.9808 -0.0374,0.448 -0.0757,0.89527 -0.11488,1.34182 -0.0119,0.6823 -0.0247,1.36385 -0.0383,2.04469 8.6e-4,0.92725 8.6e-4,1.85373 0,2.7795 -0.0374,0.82075 -0.0757,1.64074 -0.11488,2.46002 -0.0247,0.7675 -0.0502,1.53424 -0.0766,2.30028 0.0136,0.69295 0.0264,1.38515 0.0383,2.07665 8.6e-4,0.19241 8.6e-4,0.3841 0,0.57506 -0.16508,0.0433 -0.331,0.0859 -0.4978,0.1278 -0.70116,7.2e-4 -1.40315,7.2e-4 -2.10604,0 -0.70115,-0.0312 -1.40315,-0.0632 -2.10603,-0.0958 -0.35653,0.0113 -0.71391,0.022 -1.07216,0.0319 -0.10125,-0.01 -0.20336,-0.0206 -0.30634,-0.0319 -0.0502,-0.11642 -0.10124,-0.23357 -0.15316,-0.35143 0.0519,-0.7554 0.10298,-1.5115 0.15316,-2.26833 -0.0374,-1.61802 -0.0757,-3.23671 -0.11487,-4.85614 -0.0119,-1.62868 -0.0247,-3.25801 -0.0383,-4.88809 0.0136,-0.9471 0.0264,-1.89488 0.0383,-2.8434 -0.0374,-1.20269 -0.0757,-2.40605 -0.11487,-3.61016 -0.0502,-0.12707 -0.10125,-0.25487 -0.15317,-0.38338 z" />
    <path
       style="fill:#1a1a1a;stroke-width:0.791426"
       d="m 408.36834,383.39305 c 0.046,-0.002 0.13708,-0.007 0.34286,-0.0147 0.20577,-0.008 0.52617,-0.0192 1.46711,-0.0173 0.94093,0.002 2.5023,0.017 3.28256,0.0305 0.78026,0.0135 0.78026,0.0248 0.77575,0.14154 -0.005,0.11672 -0.0135,0.33888 -0.0361,0.69467 -0.0226,0.3558 -0.0587,0.84525 -0.0562,1.16353 0.002,0.31828 0.043,0.46509 0.13589,0.5646 0.0929,0.0995 0.2373,0.15224 0.3882,0.14255 0.1509,-0.01 0.30885,-0.0812 0.45298,-0.23354 0.14413,-0.15229 0.275,-0.38573 0.42844,-0.64743 0.15344,-0.2617 0.32943,-0.5516 0.50776,-0.78892 0.17833,-0.23731 0.35884,-0.4218 0.65688,-0.60448 0.29805,-0.18268 0.7132,-0.3634 1.21875,-0.50644 0.50556,-0.14304 1.10123,-0.24846 1.87749,-0.30865 0.77627,-0.0602 1.73294,-0.0753 2.59041,-0.0225 0.85748,0.0528 1.61559,0.17327 2.32861,0.42197 0.71302,0.2487 1.38089,0.62521 1.80487,0.96426 0.42399,0.33904 0.6045,0.64025 0.75781,0.97912 0.15331,0.33886 0.27966,0.71538 0.42386,0.73763 0.1442,0.0222 0.30666,-0.30908 0.60456,-0.72338 0.29791,-0.4143 0.73112,-0.91129 1.23674,-1.31049 0.50561,-0.3992 1.08322,-0.7004 1.74229,-0.8886 0.65906,-0.1882 1.39913,-0.2635 2.13924,-0.31619 0.74012,-0.0527 1.48019,-0.0828 2.18425,-0.0149 0.70407,0.0679 1.37194,0.23357 2.06689,0.51987 0.69495,0.28631 1.41697,0.69294 2.14794,1.28797 0.73096,0.59503 1.47103,1.37817 1.89491,2.1011 0.42388,0.72293 0.53218,1.38558 0.58627,2.23645 0.0541,0.85088 0.0541,1.89004 0.0451,3.2681 -0.009,1.37805 -0.0271,3.09492 -0.0541,4.75913 -0.0271,1.6642 -0.0632,3.27564 -0.0812,4.31484 -0.018,1.0392 -0.018,1.50607 -0.018,1.7621 0,0.25602 0,0.30122 -0.43279,0.31591 -0.43279,0.0147 -1.29921,-3.7e-4 -2.21981,-0.008 -0.92061,-0.008 -1.89534,-0.008 -2.47294,-0.015 -0.57759,-0.007 -0.75811,-0.0226 -0.84882,-0.27075 -0.0907,-0.24819 -0.0907,-0.73011 -0.0907,-1.5434 0,-0.81328 0,-1.95786 0.009,-3.46394 0.009,-1.50609 0.027,-3.37356 0.018,-4.81184 -0.009,-1.43827 -0.0451,-2.44731 -0.0542,-3.08743 -0.009,-0.64012 0.009,-0.91121 -0.0179,-1.12945 -0.0268,-0.21824 -0.0991,-0.38391 -0.29743,-0.63248 -0.19838,-0.24856 -0.52329,-0.57989 -1.10083,-0.82117 -0.57754,-0.24128 -1.40787,-0.39189 -2.06686,-0.42216 -0.65898,-0.0303 -1.14635,0.0601 -1.57066,0.18054 -0.42431,0.12045 -0.78532,0.27105 -1.10144,0.50459 -0.31613,0.23354 -0.58689,0.5498 -0.80356,0.87373 -0.21668,0.32393 -0.37913,0.65526 -0.48743,0.94908 -0.1083,0.29383 -0.16246,0.54984 -0.18044,1.0545 -0.018,0.50465 9e-5,1.25766 0.0181,2.30438 0.018,1.04671 0.0361,2.38708 0.027,4.14918 -0.009,1.7621 -0.0451,3.94583 -0.09,5.04482 -0.0448,1.09899 -0.099,1.11405 -1.13677,1.09909 -1.03781,-0.015 -3.05946,-0.0601 -4.10649,-0.0753 -1.04702,-0.0151 -1.11928,-7e-5 -1.16474,-0.88822 -0.0455,-0.88816 -0.0635,-2.68032 -0.0545,-4.74366 0.009,-2.06333 0.0451,-4.39767 0.0722,-5.89621 0.0271,-1.49854 0.0451,-2.1612 0.0182,-2.59031 -0.0269,-0.42911 -0.0991,-0.62491 -0.22522,-0.80571 -0.12611,-0.18081 -0.30661,-0.34647 -0.5773,-0.49727 -0.27068,-0.1508 -0.63169,-0.28635 -1.15519,-0.39943 -0.52351,-0.11308 -1.20942,-0.20344 -1.78714,-0.21861 -0.57773,-0.0152 -1.04705,0.0451 -1.39917,0.12032 -0.35212,0.0753 -0.58677,0.16562 -0.86674,0.34638 -0.27997,0.18077 -0.60487,0.45185 -0.83967,0.73065 -0.2348,0.2788 -0.37921,0.56495 -0.46941,1.40859 -0.0902,0.84365 -0.12631,2.24425 -0.1624,4.57115 -0.0361,2.3269 -0.0722,5.57991 -0.1532,7.23611 -0.081,1.65621 -0.20738,1.71646 -0.53207,1.73916 -0.32469,0.0227 -0.84815,0.008 -1.72364,0.008 -0.8755,-10e-6 -2.10293,0.015 -2.816,0.0376 -0.71307,0.0226 -0.9116,0.0527 -0.99323,-0.16532 -0.0816,-0.21799 -0.0455,-0.68486 -0.0365,-1.79932 0.009,-1.11446 -0.009,-2.87651 -0.018,-5.03774 -0.009,-2.16122 -0.009,-4.72146 0.009,-6.82244 0.0181,-2.10097 0.0541,-3.74255 0.056,-4.70223 0.002,-0.95968 -0.0306,-1.23754 -0.0469,-1.37689 -0.0163,-0.13934 -0.0162,-0.13939 0.0298,-0.14166 z"
       id="path1125"
       inkscape:path-effect="#path-effect1127"
       inkscape:original-d="m 408.32235,383.39532 c 0.092,-0.004 0.18312,-0.008 0.27338,-0.0135 0.32127,-0.0106 0.64167,-0.0219 0.96121,-0.0339 1.56229,0.0158 3.12366,0.0309 4.68419,0.0452 8.6e-4,0.012 8.6e-4,0.0233 0,0.0339 -0.008,0.22287 -0.0172,0.44502 -0.027,0.66644 -0.0353,0.4902 -0.0713,0.97966 -0.1083,1.4684 0.0415,0.14757 0.082,0.29441 0.12184,0.44052 0.14527,0.0534 0.28968,0.10615 0.43322,0.15814 0.15881,-0.0708 0.31676,-0.14235 0.47383,-0.21461 0.13174,-0.23272 0.26261,-0.46616 0.39261,-0.70032 0.17686,-0.2892 0.35285,-0.57911 0.52799,-0.86975 0.18138,-0.18377 0.36188,-0.36826 0.54152,-0.55347 0.41605,-0.18002 0.8312,-0.36074 1.24551,-0.54219 0.59655,-0.1047 1.19222,-0.21012 1.78703,-0.31627 0.95758,-0.0143 1.91425,-0.0294 2.87008,-0.0452 0.75902,0.12121 1.51713,0.24169 2.2744,0.36145 0.66876,0.37725 1.33663,0.75376 2.00364,1.12955 0.18138,0.30193 0.36189,0.60314 0.54153,0.90363 0.12723,0.37724 0.25358,0.75376 0.37906,1.12955 0.16333,-0.33062 0.32579,-0.66195 0.48738,-0.994 0.43409,-0.49629 0.8673,-0.99328 1.29966,-1.491 0.5785,-0.3005 1.15611,-0.6017 1.73287,-0.90363 0.74097,-0.0746 1.48104,-0.14988 2.22026,-0.22591 0.74096,-0.0294 1.48103,-0.0595 2.22025,-0.0904 0.66876,0.1664 1.33663,0.33206 2.00364,0.497 0.72291,0.40737 1.44493,0.814 2.1661,1.21991 0.74096,0.78388 1.48103,1.56702 2.22025,2.34945 0.10917,0.6634 0.21747,1.32605 0.32491,1.98799 8.7e-4,1.03993 8.7e-4,2.07909 0,3.11754 -0.0172,1.71767 -0.0353,3.43454 -0.0541,5.15072 -0.0353,1.61224 -0.0713,3.22368 -0.10831,4.83444 8.7e-4,0.46762 8.7e-4,0.93449 0,1.40064 8.7e-4,0.0459 8.7e-4,0.0911 0,0.13554 -0.86559,-0.0143 -1.73201,-0.0294 -2.59931,-0.0452 -0.9739,7.2e-4 -1.94863,7.2e-4 -2.92424,0 -0.17964,-0.0143 -0.36015,-0.0294 -0.54152,-0.0452 8.6e-4,-0.48123 8.6e-4,-0.96315 0,-1.44582 8.6e-4,-1.1439 8.6e-4,-2.28848 0,-3.43381 0.0189,-1.86683 0.037,-3.7343 0.0541,-5.60253 -0.0353,-1.00836 -0.0713,-2.0174 -0.1083,-3.02718 0.0189,-0.27037 0.037,-0.54145 0.0541,-0.81327 -0.0713,-0.16494 -0.14354,-0.3306 -0.21661,-0.497 -0.32406,-0.33061 -0.64896,-0.66194 -0.97475,-0.99399 -0.82948,-0.14989 -1.65981,-0.30049 -2.49101,-0.45182 -0.48651,0.0911 -0.97388,0.18145 -1.46212,0.27109 -0.36016,0.15133 -0.72116,0.30194 -1.08304,0.45182 -0.26991,0.317 -0.54066,0.63326 -0.81229,0.94881 -0.16159,0.33206 -0.32405,0.66339 -0.48737,0.994 -0.0533,0.25676 -0.10744,0.51278 -0.16246,0.76809 0.0189,0.75377 0.037,1.50678 0.0542,2.25909 0.0189,1.34113 0.037,2.6815 0.0541,4.02117 -0.0353,2.18455 -0.0713,4.36829 -0.1083,6.55135 -0.0533,0.0158 -0.10744,0.0309 -0.16246,0.0452 -2.02086,-0.0445 -4.04252,-0.0896 -6.06507,-0.13554 -0.0713,0.0158 -0.14355,0.0309 -0.21661,0.0452 -0.0172,-1.79153 -0.0353,-3.58369 -0.0542,-5.37663 0.037,-2.33371 0.0731,-4.66805 0.10831,-7.00316 0.0189,-0.66196 0.037,-1.32461 0.0541,-1.988 -0.0713,-0.19507 -0.14354,-0.39085 -0.21661,-0.58736 -0.17965,-0.16495 -0.36015,-0.33061 -0.54152,-0.497 -0.36016,-0.13482 -0.72117,-0.27037 -1.08305,-0.40664 -0.68508,-0.0896 -1.37099,-0.18 -2.0578,-0.27109 -0.46846,0.0609 -0.93777,0.12121 -1.40796,0.18073 -0.2338,0.0911 -0.46846,0.18145 -0.70398,0.27109 -0.32406,0.27182 -0.64896,0.5429 -0.97475,0.81327 -0.14354,0.28688 -0.28794,0.57303 -0.43322,0.85845 -0.0353,1.40139 -0.0713,2.80199 -0.1083,4.2019 -0.0353,3.25388 -0.0713,6.50689 -0.1083,9.75926 -0.1255,0.0609 -0.25185,0.12121 -0.37907,0.18072 -0.52262,-0.0143 -1.04608,-0.0294 -1.57042,-0.0452 -1.22662,0.0158 -2.45405,0.0309 -3.68237,0.0452 -0.1977,0.0309 -0.39625,0.0609 -0.59568,0.0904 0.037,-0.46617 0.073,-0.93304 0.10831,-1.40064 -0.0172,-1.7614 -0.0353,-3.52345 -0.0542,-5.28626 8.7e-4,-2.55963 8.7e-4,-5.11987 0,-7.68089 0.037,-1.64091 0.073,-3.28249 0.10831,-4.92481 -0.0316,-0.27715 -0.064,-0.55502 -0.0974,-0.83361 z" />
    <path
       style="fill:none;stroke-width:0.791426"
       d="m 459.48561,398.69454 c 0.1084,-0.0829 0.32501,-0.24858 0.41527,-0.40621 0.0903,-0.15763 0.0542,-0.3082 0.28012,-0.38395 0.22597,-0.0758 0.71334,-0.0758 1.77836,-0.0607 1.06501,0.0151 2.70761,0.0452 3.56494,0.10589 0.85732,0.0607 0.92951,0.15102 0.92911,0.36169 -4e-4,0.21067 -0.0726,0.54201 -0.30724,0.99362 -0.23464,0.4516 -0.63175,1.0239 -1.17318,1.60364 -0.54144,0.57973 -1.22735,1.16708 -2.02144,1.65651 -0.79408,0.48943 -1.6966,0.881 -2.72537,1.15967 -1.02877,0.27867 -2.184,0.44434 -3.29407,0.5197 -1.11007,0.0754 -2.17504,0.0603 -3.33026,-0.0451 -1.15523,-0.10536 -2.40072,-0.30115 -3.42059,-0.61724 -1.01987,-0.31608 -1.81408,-0.75282 -2.5001,-1.24218 -0.68602,-0.48936 -1.26362,-1.03153 -1.78725,-1.71672 -0.52364,-0.68519 -0.99295,-1.5135 -1.30001,-2.40213 -0.30706,-0.88863 -0.45147,-1.83742 -0.54177,-2.84653 -0.0903,-1.00911 -0.1264,-2.07839 -0.0543,-3.11768 0.0721,-1.03929 0.25265,-2.04833 0.52341,-2.87685 0.27076,-0.82852 0.63177,-1.47612 1.14632,-2.13139 0.51454,-0.65527 1.18241,-1.31792 1.91356,-1.92793 0.73114,-0.61 1.52537,-1.16723 2.33785,-1.55881 0.81249,-0.39157 1.64281,-0.61748 2.7079,-0.79816 1.06509,-0.18069 2.36473,-0.31623 3.6735,-0.29353 1.30878,0.0227 2.62647,0.20342 3.64637,0.45962 1.01989,0.25619 1.74191,0.58752 2.50902,1.08465 0.76711,0.49714 1.57939,1.15979 2.27422,1.90538 0.69484,0.7456 1.27245,1.57392 1.66033,2.44743 0.38788,0.87351 0.58643,1.79219 0.68562,2.68069 0.0992,0.88851 0.0992,1.74695 0.0811,2.30413 -0.0181,0.55718 -0.0542,0.81319 -0.13506,0.95591 -0.0809,0.14271 -0.20719,0.17284 -1.69631,0.18798 -1.48913,0.0151 -4.3411,0.0151 -6.97654,9e-5 -2.63544,-0.0151 -5.0542,-0.0452 -6.33591,-0.0453 -1.28171,-8e-5 -1.42608,0.0301 -1.51674,0.1509 -0.0907,0.12085 -0.12675,0.33168 -0.13572,0.58029 -0.009,0.24861 0.009,0.53477 0.18077,0.98666 0.1717,0.45189 0.49661,1.06937 0.94808,1.61145 0.45147,0.54208 1.02908,1.00894 1.56165,1.34767 0.53256,0.33872 1.01992,0.54957 1.56141,0.66987 0.54148,0.1203 1.13714,0.15043 1.79586,0.06 0.65872,-0.0905 1.38074,-0.30131 1.88592,-0.53472 0.50519,-0.23341 0.794,-0.48944 0.93834,-0.61739 0.14434,-0.12796 0.14439,-0.12806 0.2528,-0.21097 z"
       id="path1169"
       inkscape:path-effect="#path-effect1171"
       inkscape:original-d="m 459.3772,398.77745 c 0.21748,-0.16495 0.43409,-0.33061 0.64983,-0.497 -0.0353,-0.14989 -0.0713,-0.30049 -0.10831,-0.45182 0.48825,7.2e-4 0.97562,7.2e-4 1.46212,0 1.64352,0.0309 3.28612,0.0609 4.92787,0.0904 0.0731,0.0911 0.14528,0.18145 0.21661,0.27109 -0.0713,0.33206 -0.14354,0.66339 -0.21661,0.994 -0.39625,0.57304 -0.79337,1.14533 -1.19135,1.71691 -0.68508,0.5881 -1.37099,1.17545 -2.05779,1.76208 -0.9017,0.39231 -1.80422,0.78387 -2.70763,1.17473 -1.15441,0.16639 -2.30964,0.33205 -3.46575,0.497 -1.06416,-0.0143 -2.12913,-0.0294 -3.195,-0.0452 -1.24466,-0.19507 -2.49015,-0.39086 -3.73652,-0.58737 -0.79339,-0.43604 -1.5876,-0.87278 -2.38271,-1.31027 -0.57677,-0.54147 -1.15438,-1.08363 -1.73287,-1.62654 -0.46847,-0.82763 -0.93778,-1.65594 -1.40797,-2.48499 -0.14354,-0.94812 -0.28794,-1.89691 -0.43322,-2.84645 -0.0353,-1.0686 -0.0713,-2.13788 -0.1083,-3.2079 0.18138,-1.00836 0.36188,-2.0174 0.54152,-3.02718 0.36189,-0.64689 0.7229,-1.29449 1.08305,-1.94281 0.66876,-0.66196 1.33663,-1.32461 2.00364,-1.988 0.79512,-0.55653 1.58934,-1.11376 2.38271,-1.67172 0.83122,-0.22519 1.66154,-0.4511 2.49101,-0.67773 1.30055,-0.13482 2.60019,-0.27037 3.89898,-0.40663 1.3186,0.18145 2.63629,0.36217 3.95313,0.54218 0.72291,0.33206 1.44493,0.66339 2.1661,0.994 0.81317,0.66339 1.62544,1.32605 2.43686,1.98799 0.5785,0.82907 1.15611,1.65739 1.73288,2.485 0.19943,0.91943 0.39798,1.83811 0.59567,2.75608 8.7e-4,0.85919 8.7e-4,1.71763 0,2.57536 -0.0353,0.25675 -0.0713,0.51278 -0.1083,0.76809 -0.1255,0.0309 -0.25185,0.0609 -0.37907,0.0904 -2.85122,7.2e-4 -5.70319,7.2e-4 -8.55609,0 -2.41799,-0.0294 -4.83675,-0.0595 -7.25643,-0.0904 -0.14354,0.0309 -0.28794,0.0609 -0.43322,0.0904 -0.0353,0.21157 -0.0713,0.42242 -0.1083,0.63255 0.0189,0.28687 0.037,0.57302 0.0541,0.85845 0.32579,0.61821 0.6507,1.23569 0.97475,1.85245 0.5785,0.46761 1.15611,0.93448 1.73287,1.40063 0.48825,0.21158 0.97562,0.42242 1.46212,0.63255 0.59655,0.0309 1.19222,0.0609 1.78703,0.0904 0.72292,-0.21013 1.44494,-0.42097 2.1661,-0.63254 0.28969,-0.25531 0.5785,-0.51134 0.86644,-0.76809 z" />
    <path
       style="fill:#333333;stroke-width:0.791426"
       d="m 451.68749,391.96275 c -0.0542,0.18848 -0.16252,0.56499 -0.32498,1.11471 -0.16246,0.54971 -0.37907,1.2726 -0.43269,1.64144 -0.0536,0.36885 0.0547,0.38392 0.47886,0.39138 0.42416,0.007 1.16422,0.007 2.69856,0.007 1.53435,0 3.86286,0 6.11022,0.0226 2.24735,0.0226 4.41341,0.0678 5.56852,0.0677 1.15511,-1.1e-4 1.29949,-0.0453 1.37141,-0.23309 0.0719,-0.18781 0.0719,-0.51914 0.0809,-1.30231 0.009,-0.78316 0.0271,-2.0181 -0.36079,-3.30569 -0.38783,-1.28759 -1.18205,-2.62796 -2.34613,-3.72757 -1.16408,-1.09962 -2.69838,-1.95806 -4.14247,-2.45528 -1.4441,-0.49723 -2.79788,-0.63277 -4.2059,-0.67048 -1.40803,-0.0377 -2.87012,0.0225 -4.09776,0.25588 -1.22764,0.23336 -2.22042,0.63999 -3.17731,1.26506 -0.95689,0.62507 -1.87746,1.46844 -2.59058,2.39485 -0.71313,0.9264 -1.21854,1.93544 -1.57052,3.11788 -0.35198,1.18245 -0.55053,2.53787 -0.57752,3.88592 -0.027,1.34804 0.11741,2.6884 0.50571,3.96863 0.38829,1.28022 1.02006,2.5001 2.16655,3.55415 1.14649,1.05405 2.80713,1.9426 4.24215,2.43185 1.43503,0.48924 2.64441,0.57961 4.23286,0.59462 1.58846,0.015 3.55597,-0.0452 5.1261,-0.48207 1.57013,-0.43683 2.74341,-1.25009 3.76318,-2.15366 1.01976,-0.90357 1.88618,-1.89755 2.39153,-2.56006 0.50535,-0.66252 0.64976,-0.99384 0.65925,-1.21951 0.01,-0.22567 -0.11685,-0.34615 -1.38943,-0.42184 -1.27257,-0.0757 -3.69133,-0.10583 -4.96424,-0.0758 -1.27292,0.03 -1.39926,0.12038 -1.48065,0.3015 -0.0814,0.18111 -0.11749,0.45218 -0.44225,0.80573 -0.32476,0.35355 -0.93848,0.7903 -1.49788,1.08397 -0.5594,0.29368 -1.06481,0.44429 -1.64226,0.45952 -0.57745,0.0152 -1.22726,-0.10524 -1.91324,-0.44386 -0.68597,-0.33861 -1.40799,-0.89585 -2.01291,-1.64877 -0.60491,-0.75292 -1.09227,-1.70171 -1.28208,-2.65822 -0.1898,-0.9565 -0.0815,-1.92037 0.0809,-2.66602 0.16243,-0.74566 0.37903,-1.27277 0.74008,-1.93554 0.36105,-0.66277 0.86646,-1.46096 1.40825,-1.99578 0.54179,-0.53481 1.1194,-0.80589 1.8326,-0.97149 0.71321,-0.16559 1.56158,-0.22583 2.27465,-0.0674 0.71308,0.15847 1.2907,0.53497 1.75084,0.96434 0.46015,0.42937 0.80311,0.91131 0.95619,1.33288 0.15309,0.42157 0.11699,0.78301 0.0899,1.00131 -0.0271,0.2183 -0.0452,0.29363 -0.82991,0.30846 -0.78473,0.0148 -2.33707,-0.0304 -3.66381,-0.068 -1.32675,-0.0377 -2.42783,-0.0678 -2.97882,-0.0829 -0.551,-0.0151 -0.55091,-0.015 -0.60512,0.17345 z"
       id="path1512"
       inkscape:path-effect="#path-effect1514"
       inkscape:original-d="m 451.7417,391.77428 c -0.10744,0.37723 -0.21574,0.75375 -0.32491,1.12954 -0.21575,0.72365 -0.43235,1.44654 -0.64983,2.16873 0.10917,0.0157 0.21748,0.0309 0.32491,0.0452 0.74097,7.2e-4 1.48103,7.2e-4 2.22025,0 2.32947,7.2e-4 4.65798,7.2e-4 6.98567,0 2.16701,0.0459 4.33306,0.0911 6.4983,0.13554 0.14527,-0.0445 0.28967,-0.0896 0.43322,-0.13554 8.6e-4,-0.33062 8.6e-4,-0.66195 0,-0.994 0.0189,-1.23427 0.037,-2.46921 0.0541,-3.7049 -0.79339,-1.33969 -1.5876,-2.68006 -2.38271,-4.02118 -1.53348,-0.85774 -3.06778,-1.71618 -4.60296,-2.57535 -1.35297,-0.13483 -2.70675,-0.27037 -4.06143,-0.40664 -1.46128,0.0609 -2.92337,0.12121 -4.38635,0.18073 -0.99195,0.40736 -1.98473,0.81399 -2.97839,1.2199 -0.91974,0.84414 -1.84031,1.68751 -2.76177,2.53018 -0.50457,1.0098 -1.00998,2.01884 -1.51627,3.02718 -0.1977,1.3562 -0.39625,2.71162 -0.59568,4.06635 0.14528,1.34114 0.28968,2.6815 0.43322,4.02117 0.63266,1.22066 1.26442,2.44054 1.89534,3.65972 1.66157,0.88932 3.32221,1.77787 4.98202,2.66573 1.2103,0.0911 2.41968,0.18145 3.62822,0.27109 1.96844,-0.0595 3.93595,-0.11977 5.90262,-0.18073 1.17419,-0.81256 2.34747,-1.62582 3.51991,-2.43981 0.86732,-0.9933 1.73374,-1.98728 2.59931,-2.982 0.14528,-0.33061 0.28968,-0.66194 0.43322,-0.994 -0.12549,-0.11976 -0.25184,-0.24024 -0.37906,-0.36145 -2.41799,-0.0294 -4.83675,-0.0595 -7.25643,-0.0904 -0.1255,0.0911 -0.25185,0.18145 -0.37907,0.27109 -0.0353,0.27182 -0.0713,0.5429 -0.10831,0.81327 -0.61287,0.43749 -1.22659,0.87423 -1.84118,1.31027 -0.50457,0.15133 -1.00998,0.30194 -1.51627,0.45182 -0.64898,-0.11977 -1.29879,-0.24025 -1.94949,-0.36146 -0.72118,-0.55653 -1.4432,-1.11376 -2.16609,-1.67172 -0.48652,-0.94812 -0.97388,-1.89691 -1.46212,-2.84645 0.10917,-0.96317 0.21748,-1.92703 0.32491,-2.89163 0.21748,-0.52641 0.43409,-1.05352 0.64983,-1.58136 0.5063,-0.79751 1.01172,-1.5957 1.51627,-2.39463 0.57851,-0.27038 1.15612,-0.54146 1.73288,-0.81327 0.84928,-0.0595 1.69764,-0.11977 2.54517,-0.18073 0.5785,0.37724 1.15611,0.75375 1.73288,1.12954 0.34383,0.48267 0.6868,0.9646 1.02889,1.44582 -0.0353,0.36218 -0.0713,0.72363 -0.1083,1.08436 -0.0172,0.076 -0.0353,0.15133 -0.0542,0.22591 -1.55153,-0.0445 -3.10387,-0.0896 -4.65711,-0.13555 -1.10025,-0.0294 -2.20133,-0.0595 -3.3033,-0.0904 z" />
    <path
       style="fill:#333333;stroke-width:0.791426"
       d="m 469.12936,377.93252 c 0,-0.0955 0,-0.28717 0.10241,-0.41542 0.1024,-0.12825 0.30662,-0.19214 1.34066,-0.20269 1.03404,-0.0105 2.89753,0.032 3.90589,0.10691 1.00837,0.0749 1.16153,0.18135 1.23765,0.37308 0.0761,0.19173 0.0761,0.46861 0.0251,4.46222 -0.0511,3.99362 -0.15317,11.70365 -0.2681,15.70763 -0.11494,4.00398 -0.24257,4.30217 -0.43395,4.58953 -0.19138,0.28737 -0.44666,0.56425 -0.84209,0.79846 -0.39543,0.23421 -0.9315,0.4259 -1.74823,0.52185 -0.81674,0.0959 -1.91441,0.0959 -2.50166,0.0431 -0.58725,-0.0528 -0.66384,-0.15931 -0.71522,-4.48315 -0.0514,-4.32384 -0.0769,-12.86451 -0.0897,-17.13529 -0.0128,-4.27079 -0.0127,-4.27079 -0.0127,-4.36627 z"
       id="path1783"
       inkscape:path-effect="#path-effect1785"
       inkscape:original-d="m 469.12936,378.028 c 8.7e-4,-0.19097 8.7e-4,-0.38265 0,-0.57507 0.20509,-0.0632 0.40931,-0.12706 0.61266,-0.19168 1.86443,0.0433 3.72792,0.0859 5.59057,0.12779 0.15404,0.10722 0.30721,0.21371 0.4595,0.31948 8.7e-4,0.27761 8.7e-4,0.55449 0,0.83066 -0.10124,7.71107 -0.20335,15.4211 -0.30633,23.13057 -0.12677,0.29891 -0.25441,0.59709 -0.38291,0.89455 -0.25442,0.27761 -0.50969,0.5545 -0.76584,0.83065 -0.53522,0.19242 -1.07129,0.38411 -1.60824,0.57508 -1.09685,7.2e-4 -2.19452,7.2e-4 -3.29308,0 -0.0757,-0.10578 -0.1523,-0.21227 -0.22975,-0.31949 -0.0247,-8.5403 -0.0502,-17.08097 -0.0766,-25.62254 z" />
  </g>
</svg>
